<svg width="35" height="28" viewBox="0 0 35 28" fill="none" xmlns="http://www.w3.org/2000/svg">
<g clip-path="url(#clip0_233_1092)">
<path d="M31.6592 22.1527C33.3848 22.9939 34.5568 24.4267 34.9188 26.4955C35.1405 27.7566 34.9625 27.9742 33.6894 27.9742H16.7958C15.7098 27.9742 15.5499 27.821 15.6826 26.7284C15.9104 24.865 16.838 23.4414 18.4173 22.4637C18.63 22.3319 18.8547 22.2185 19.0056 22.1358L17.9316 19.7682C17.2121 19.7682 16.3614 19.7514 15.5182 19.7805C15.3448 19.7805 15.1577 19.9337 15.0084 20.0625C14.7354 20.2862 14.485 20.539 14.2271 20.7812C12.9389 21.9948 12.9389 21.9964 11.5015 20.988C11.4879 21.2424 11.4668 21.4569 11.4668 21.6715C11.4668 23.4843 11.4532 25.2971 11.4668 27.1084C11.4668 27.7214 11.236 28.0018 10.6251 28.0003C7.96134 27.9911 5.29657 27.9911 2.63079 28.0003C2.01387 28.0003 1.7846 27.7091 1.79516 27.1023C1.81477 25.904 1.78158 24.7026 1.81024 23.5027C1.82231 23.0583 1.71069 22.7794 1.27176 22.6507C1.03343 22.5802 0.819248 22.4392 0.580927 22.3519C0.0213248 22.1419 -0.0993441 21.7772 0.0695923 21.2041C0.632714 19.2988 1.17472 17.3884 1.69561 15.4729C1.84644 14.9121 2.15867 14.6899 2.72732 14.7067C3.80731 14.7343 4.8888 14.7144 5.99896 14.67C5.00344 14.2792 4.112 13.7505 3.5705 12.7851C3.29809 12.3234 3.12737 11.8072 3.07009 11.272C3.0128 10.7369 3.07031 10.1955 3.23866 9.68506C3.76357 8.04232 5.25383 7.01408 6.99749 7.07998C7.79414 7.12076 8.55651 7.4219 9.17105 7.93854C9.78558 8.45518 10.2194 9.15968 10.4079 9.9471C10.883 11.9668 10.1062 13.2617 7.51939 14.7113C8.38368 14.7113 9.17858 14.7588 9.96896 14.6975C10.7925 14.6332 11.4411 14.84 11.9057 15.5633C12.0703 15.7688 12.2514 15.96 12.4472 16.1349V3.85887C11.2692 3.58304 11.2692 3.58304 11.2692 2.27284C11.2692 1.86522 11.2692 1.45607 11.2692 1.04692C11.2767 0.0998981 11.3672 0.00335693 12.325 0.00335693C17.4002 0.00335693 22.4783 0.00335693 27.5595 0.00335693C29.6963 0.00335693 31.8327 0.00335693 33.9685 0.00335693C34.8946 0.00335693 34.9987 0.119819 35.0017 1.07604C35.0017 1.58786 35.0017 2.09815 35.0017 2.60844C35.0017 3.66732 34.9625 3.70563 33.7664 3.80064V4.66032C33.7664 9.3326 33.7664 14.008 33.7664 18.6772C33.7664 19.3346 33.6291 19.779 32.8614 19.782C32.775 19.8017 32.6941 19.8412 32.6251 19.8975C32.5561 19.9538 32.5007 20.0254 32.4632 20.1069C32.1796 20.7612 31.9352 21.4386 31.6592 22.1527ZM32.3093 18.5331L32.4858 18.4749V3.79451H13.7821V16.8873C13.8907 16.8138 13.9329 16.7908 13.9737 16.7571C14.568 16.2069 15.1592 15.6522 15.7565 15.1067C16.6148 14.3206 17.4912 14.2884 18.1488 15.0117C18.8064 15.735 18.6767 16.6253 17.8351 17.416C17.4851 17.7455 17.105 18.0412 16.7385 18.3508L16.921 18.576C17.4685 18.3584 18.1277 18.904 18.6209 18.1715C20.0222 16.0859 22.5019 16.1043 23.95 18.1577C24.0917 18.3584 24.4025 18.4872 24.6649 18.5347C25.0058 18.599 25.3693 18.5193 25.7208 18.5576C26.2487 18.6159 26.5579 18.4305 26.8747 17.9615C28.0814 16.1809 30.6456 16.1932 31.89 17.9386C32.0318 18.1347 32.169 18.3355 32.3093 18.5331ZM1.32907 21.3543C2.75749 21.9948 4.1482 22.6308 5.55248 23.2284C5.70332 23.2912 5.93259 23.1334 6.12566 23.0752C6.04119 22.8867 6.00801 22.6154 5.86471 22.522C5.11053 22.004 4.31563 21.5657 3.60217 21.0156C3.3729 20.8394 3.16927 20.3475 3.2462 20.0962C3.44818 19.4651 3.73877 18.8669 4.10898 18.3201C4.2387 18.1224 4.63842 18.1071 4.91596 18.0136C4.99288 18.2987 5.18595 18.6128 5.12411 18.8595C5.00797 19.3193 4.74249 19.7315 4.55244 20.1391C4.57493 20.177 4.60121 20.2124 4.63088 20.2448C5.24478 20.6432 5.8617 21.0371 6.46957 21.4416C7.33537 22.0163 7.61592 22.8606 7.22375 23.6636C6.83157 24.4666 5.89488 24.7485 4.94914 24.3394C4.33373 24.0728 3.72435 23.7862 3.07726 23.4935V26.7284H10.2571V25.9346C10.2571 23.9425 10.239 21.9504 10.2737 19.9583C10.2737 19.6242 10.4245 19.1921 10.6658 19.0036C10.8001 18.8963 11.2843 19.1461 11.5452 19.333C11.9887 19.6487 12.3808 20.0395 12.8198 20.4226C14.2814 19.0756 15.7007 17.7807 17.096 16.4598C17.2287 16.3326 17.2121 16.0445 17.2649 15.83C17.0522 15.8897 16.7868 15.8867 16.6344 16.02C15.7792 16.7709 14.9526 17.5524 14.1109 18.3186C13.4397 18.9316 13.2919 18.9316 12.6946 18.2788C12.0973 17.6259 11.5573 16.9808 10.9524 16.3678C10.7525 16.156 10.4855 16.0225 10.1982 15.9909C7.91156 15.9623 5.62438 15.9623 3.3367 15.9909C3.13307 15.9909 2.80576 16.2039 2.75146 16.3847C2.25219 18.0091 1.81024 19.6518 1.32907 21.3543ZM12.5196 2.46899H33.7347V1.27831H12.5196V2.46899ZM33.6276 26.7238C33.5793 24.7868 31.712 23.046 29.5807 22.9235C27.4132 22.7947 25.3573 24.5126 25.0888 26.7238H33.6276ZM23.68 26.7238C23.9288 26.0189 24.1642 25.4305 24.3376 24.8252C24.3934 24.6305 24.3693 24.298 24.2441 24.1816C22.9575 22.9848 21.4627 22.5894 19.7959 23.1901C18.182 23.7724 17.2498 24.9661 16.8923 26.7238H23.68ZM6.81498 13.4149C7.30973 13.4046 7.79044 13.246 8.1967 12.959C8.60296 12.6719 8.91664 12.2693 9.09831 11.8017C9.27998 11.334 9.32153 10.8223 9.21774 10.3307C9.11395 9.83917 8.86946 9.38976 8.51498 9.03897C8.16051 8.68818 7.71188 8.45166 7.22548 8.35916C6.73908 8.26666 6.23662 8.32229 5.78125 8.51906C5.32589 8.71584 4.93793 9.04498 4.66616 9.4651C4.39438 9.88523 4.25091 10.3776 4.25379 10.8803C4.25652 11.2181 4.32512 11.5519 4.45563 11.8626C4.58613 12.1733 4.77595 12.4546 5.01411 12.6903C5.25227 12.9259 5.53404 13.1113 5.84315 13.2357C6.15226 13.3601 6.48256 13.421 6.81498 13.4149ZM23.1158 19.6748C23.1053 18.6634 22.2244 17.8206 21.2002 17.8359C20.6946 17.8464 20.2135 18.059 19.8614 18.4277C19.5092 18.7964 19.3144 19.2913 19.3193 19.805C19.3334 20.3051 19.5386 20.7799 19.8914 21.1289C20.2442 21.4778 20.7169 21.6736 21.2093 21.6745C22.2998 21.6822 23.1264 20.8149 23.1158 19.6748ZM31.261 19.782C31.2644 19.5266 31.2175 19.2731 31.1231 19.0364C31.0286 18.7996 30.8885 18.5845 30.711 18.4036C30.5335 18.2227 30.3222 18.0796 30.0895 17.9829C29.8568 17.8862 29.6073 17.8378 29.3559 17.8405C28.8612 17.8537 28.3904 18.0596 28.0409 18.4155C27.6914 18.7715 27.4898 19.2503 27.478 19.7529C27.4779 20.2557 27.6712 20.7385 28.0167 21.0984C28.3622 21.4583 28.8326 21.6667 29.3273 21.6791C29.5786 21.6904 29.8295 21.6495 30.0647 21.559C30.2999 21.4686 30.5145 21.3303 30.6955 21.1528C30.8764 20.9753 31.0199 20.7622 31.1171 20.5266C31.2143 20.2909 31.2633 20.0376 31.261 19.782ZM25.3407 23.3617L27.1055 22.1174C26.7796 21.3512 26.4614 20.585 26.1326 19.8188H24.5669C24.1988 20.634 23.864 21.3788 23.5291 22.1251L25.3407 23.3617Z" fill="white"/>
<path d="M23.1397 4.90369C24.1658 4.90828 25.1676 5.22215 26.018 5.80555C26.8684 6.38896 27.5293 7.21565 27.917 8.18093C28.3046 9.14622 28.4016 10.2067 28.1955 11.228C27.9895 12.2492 27.4898 13.1855 26.7596 13.918C26.0295 14.6505 25.1018 15.1465 24.094 15.343C23.0862 15.5395 22.0437 15.4277 21.0985 15.0218C20.1533 14.6159 19.3479 13.9342 18.7844 13.0629C18.2208 12.1917 17.9244 11.1701 17.9328 10.1276C17.9479 8.73551 18.5034 7.40572 19.4784 6.42747C20.4535 5.44921 21.7693 4.90159 23.1397 4.90369ZM19.144 10.1751C19.1424 10.7062 19.2444 11.2322 19.4441 11.7229C19.6439 12.2136 19.9374 12.6592 20.3077 13.034C20.678 13.4088 21.1177 13.7053 21.6015 13.9063C22.0852 14.1074 22.6034 14.209 23.1261 14.2054C23.6476 14.2047 24.1639 14.0996 24.6455 13.8962C25.1271 13.6928 25.5645 13.395 25.9328 13.0198C26.3011 12.6446 26.5931 12.1994 26.792 11.7096C26.991 11.2199 27.093 10.695 27.0923 10.1652C27.0916 9.63533 26.9882 9.1108 26.788 8.62154C26.5877 8.13228 26.2946 7.68789 25.9253 7.31372C25.5561 6.93955 25.1179 6.64294 24.6358 6.44082C24.1536 6.2387 23.6371 6.13504 23.1155 6.13574C22.5925 6.1335 22.0742 6.23669 21.5906 6.43933C21.1071 6.64198 20.6679 6.94006 20.2986 7.31631C19.9292 7.69256 19.637 8.13951 19.4388 8.63129C19.2406 9.12306 19.1404 9.64989 19.144 10.1813V10.1751Z" fill="white"/>
<path d="M22.5062 10.7774C22.0718 10.7774 21.7038 10.8525 21.3885 10.7529C21.1593 10.6809 20.8531 10.379 20.8516 10.1798C20.8501 9.98056 21.1532 9.66488 21.3765 9.59286C21.6917 9.49172 22.0628 9.56681 22.5032 9.56681C22.5032 9.20057 22.5032 8.90328 22.5032 8.60753C22.5153 8.17999 22.6676 7.77237 23.1398 7.87504C23.369 7.92714 23.5923 8.31791 23.6903 8.6014C23.7823 8.84352 23.7099 9.15 23.7099 9.55915C24.0885 9.55915 24.4641 9.47487 24.7537 9.58367C25.0237 9.68327 25.2168 9.99742 25.443 10.215C25.2137 10.405 25.0116 10.6747 24.7492 10.7621C24.4596 10.8571 24.1157 10.7835 23.7069 10.7835C23.7069 11.1835 23.7793 11.5313 23.6858 11.8256C23.6028 12.0876 23.3358 12.2853 23.1503 12.5151C22.9346 12.2853 22.6329 12.0891 22.5289 11.8148C22.4248 11.5405 22.5062 11.1774 22.5062 10.7774Z" fill="white"/>
</g>
<defs>
<clipPath id="clip0_233_1092">
<rect width="35" height="28" fill="white"/>
</clipPath>
</defs>
</svg>
