<svg width="36" height="29" viewBox="0 0 36 29" fill="none" xmlns="http://www.w3.org/2000/svg">
<g clip-path="url(#clip0_264_1072)">
<path d="M32.3373 22.5975C34.0847 23.4495 35.2715 24.9004 35.6381 26.9953C35.8627 28.2724 35.6824 28.4928 34.3933 28.4928H17.2858C16.186 28.4928 16.0241 28.3376 16.1585 27.2312C16.3892 25.3442 17.3285 23.9026 18.9278 22.9125C19.1432 22.7791 19.3707 22.6642 19.5235 22.5804L18.4359 20.1829C17.7073 20.1829 16.8459 20.1659 15.992 20.1953C15.8164 20.1953 15.627 20.3505 15.4757 20.4809C15.1993 20.7074 14.9457 20.9635 14.6845 21.2087C13.3801 22.4377 13.3801 22.4392 11.9244 21.4182C11.9107 21.6758 11.8893 21.893 11.8893 22.1103C11.8893 23.946 11.8755 25.7818 11.8893 27.616C11.8893 28.2367 11.6556 28.5207 11.037 28.5192C8.33947 28.5099 5.64097 28.5099 2.94145 28.5192C2.31672 28.5192 2.08454 28.2243 2.09524 27.6098C2.11509 26.3963 2.08149 25.1797 2.11051 23.9647C2.12273 23.5146 2.0097 23.2322 1.56521 23.1019C1.32387 23.0305 1.10697 22.8877 0.865636 22.7993C0.298951 22.5867 0.176755 22.2173 0.347829 21.637C0.918079 19.7076 1.46694 17.773 1.99442 15.8332C2.14717 15.2653 2.46335 15.0403 3.0392 15.0573C4.13286 15.0853 5.22804 15.0651 6.35225 15.0201C5.34413 14.6244 4.44141 14.089 3.89305 13.1114C3.61719 12.6438 3.44431 12.1211 3.3863 11.5792C3.32829 11.0372 3.38653 10.489 3.55701 9.9721C4.08856 8.30857 5.59769 7.26732 7.36343 7.33404C8.17016 7.37534 8.94218 7.68029 9.56449 8.20347C10.1868 8.72665 10.6261 9.44007 10.817 10.2375C11.2981 12.2827 10.5115 13.594 7.89192 15.062C8.76716 15.062 9.57212 15.1101 10.3725 15.048C11.2065 14.9829 11.8633 15.1923 12.3338 15.9248C12.5004 16.1329 12.6838 16.3265 12.8821 16.5036V4.07217C11.6892 3.79284 11.6892 3.79284 11.6892 2.46606C11.6892 2.05328 11.6892 1.63895 11.6892 1.22462C11.6968 0.26561 11.7885 0.167847 12.7584 0.167847C17.8978 0.167847 23.0402 0.167847 28.1857 0.167847C30.3496 0.167847 32.513 0.167847 34.6758 0.167847C35.6137 0.167847 35.7191 0.285783 35.7221 1.2541C35.7221 1.7724 35.7221 2.28915 35.7221 2.8059C35.7221 3.87819 35.6824 3.91699 34.4712 4.0132V4.88376C34.4712 9.61519 34.4712 14.3497 34.4712 19.078C34.4712 19.7438 34.3322 20.1938 33.5547 20.1969C33.4672 20.2168 33.3853 20.2568 33.3154 20.3138C33.2455 20.3708 33.1894 20.4434 33.1514 20.5259C32.8643 21.1885 32.6168 21.8744 32.3373 22.5975ZM32.9956 18.9322L33.1743 18.8732V4.00699H14.2339V17.2655C14.3439 17.1911 14.3867 17.1678 14.4279 17.1336C15.0297 16.5765 15.6285 16.0148 16.2333 15.4624C17.1025 14.6663 17.9899 14.6337 18.6559 15.3661C19.3219 16.0986 19.1905 17.0002 18.3382 17.8009C17.9838 18.1346 17.5989 18.434 17.2277 18.7475L17.4125 18.9756C17.967 18.7553 18.6345 19.3077 19.134 18.566C20.553 16.454 23.0641 16.4726 24.5305 18.552C24.6741 18.7553 24.9887 18.8856 25.2545 18.9337C25.5997 18.9989 25.9678 18.9182 26.3237 18.957C26.8583 19.016 27.1714 18.8282 27.4922 18.3534C28.7142 16.5502 31.3109 16.5626 32.571 18.3301C32.7146 18.5287 32.8536 18.732 32.9956 18.9322ZM1.62325 21.789C3.06975 22.4377 4.47807 23.0817 5.90012 23.6869C6.05287 23.7505 6.28504 23.5907 6.48056 23.5317C6.39502 23.3408 6.36142 23.0662 6.21631 22.9715C5.45258 22.447 4.64761 22.0032 3.92513 21.4461C3.69295 21.2676 3.48675 20.7695 3.56465 20.515C3.76918 19.8759 4.06345 19.2702 4.43835 18.7165C4.56971 18.5163 4.97449 18.5008 5.25554 18.4061C5.33344 18.6948 5.52895 19.0129 5.46633 19.2627C5.34871 19.7282 5.07988 20.1457 4.88742 20.5585C4.9102 20.5968 4.93681 20.6327 4.96685 20.6655C5.58852 21.069 6.21325 21.4678 6.82882 21.8775C7.70557 22.4594 7.98968 23.3144 7.59254 24.1276C7.19541 24.9407 6.24686 25.2263 5.28914 24.8119C4.66594 24.5419 4.04885 24.2517 3.39357 23.9553V27.2312H10.6643V26.4274C10.6643 24.41 10.6459 22.3927 10.6811 20.3753C10.6811 20.0371 10.8338 19.5994 11.0782 19.4086C11.2141 19.3 11.7044 19.5529 11.9687 19.7422C12.4178 20.0619 12.8149 20.4576 13.2594 20.8455C14.7395 19.4815 16.1768 18.1702 17.5897 16.8326C17.7241 16.7038 17.7073 16.4121 17.7608 16.1948C17.5454 16.2553 17.2766 16.2522 17.1223 16.3872C16.2563 17.1476 15.4192 17.939 14.5669 18.7149C13.8872 19.3356 13.7375 19.3356 13.1326 18.6746C12.5277 18.0135 11.9809 17.3602 11.3684 16.7395C11.166 16.5249 10.8955 16.3897 10.6047 16.3577C8.28906 16.3288 5.97293 16.3288 3.65629 16.3577C3.45009 16.3577 3.11863 16.5734 3.06364 16.7566C2.55806 18.4015 2.11051 20.065 1.62325 21.789ZM12.9554 2.66469H34.4391V1.45894H12.9554V2.66469ZM34.3306 27.2265C34.2817 25.2651 32.3908 23.5022 30.2325 23.3781C28.0375 23.2477 25.9556 24.9873 25.6837 27.2265H34.3306ZM24.2571 27.2265C24.5091 26.5127 24.7474 25.9168 24.923 25.3039C24.9796 25.1068 24.9551 24.77 24.8283 24.6521C23.5254 23.4401 22.0117 23.0398 20.3239 23.6481C18.6895 24.2378 17.7455 25.4466 17.3835 27.2265H24.2571ZM7.1786 13.7492C7.67961 13.7388 8.16641 13.5781 8.57781 13.2875C8.98922 12.9968 9.30687 12.589 9.49083 12.1155C9.6748 11.6419 9.71688 11.1237 9.61178 10.6259C9.50668 10.1282 9.25908 9.67306 8.90012 9.31783C8.54116 8.9626 8.08685 8.7231 7.5943 8.62942C7.10174 8.53575 6.59292 8.59208 6.13179 8.79135C5.67066 8.99061 5.27779 9.32392 5.00258 9.74936C4.72736 10.1748 4.58208 10.6734 4.58499 11.1825C4.58776 11.5245 4.65723 11.8626 4.78938 12.1772C4.92154 12.4918 5.11376 12.7767 5.35493 13.0153C5.59611 13.254 5.88145 13.4417 6.19447 13.5677C6.50749 13.6937 6.84198 13.7553 7.1786 13.7492ZM23.6858 20.0883C23.6751 19.0641 22.7831 18.2106 21.7459 18.2261C21.234 18.2367 20.7468 18.4521 20.3901 18.8254C20.0335 19.1988 19.8363 19.6999 19.8412 20.2202C19.8555 20.7265 20.0633 21.2074 20.4205 21.5608C20.7778 21.9142 21.2565 22.1124 21.7551 22.1134C22.8594 22.1211 23.6965 21.2428 23.6858 20.0883ZM31.9341 20.1969C31.9375 19.9382 31.89 19.6815 31.7944 19.4418C31.6988 19.202 31.5569 18.9842 31.3771 18.801C31.1974 18.6178 30.9834 18.4729 30.7477 18.375C30.512 18.2771 30.2595 18.228 30.0049 18.2308C29.5039 18.2442 29.0271 18.4526 28.6732 18.8131C28.3192 19.1735 28.1152 19.6584 28.1032 20.1674C28.103 20.6765 28.2988 21.1655 28.6487 21.53C28.9986 21.8944 29.4749 22.1055 29.9759 22.118C30.2303 22.1294 30.4844 22.088 30.7226 21.9964C30.9608 21.9048 31.1782 21.7648 31.3614 21.585C31.5446 21.4053 31.6899 21.1895 31.7883 20.9508C31.8868 20.7122 31.9364 20.4557 31.9341 20.1969ZM25.9388 23.8219L27.7259 22.5618C27.396 21.7859 27.0737 21.01 26.7407 20.2341H25.1552C24.7825 21.0597 24.4434 21.8139 24.1043 22.5696L25.9388 23.8219Z" fill="#546DE5"/>
<path d="M23.7104 5.13026C24.7496 5.1349 25.764 5.45274 26.6252 6.04353C27.4864 6.63432 28.1557 7.47148 28.5482 8.44898C28.9408 9.42648 29.039 10.5003 28.8303 11.5346C28.6217 12.5688 28.1156 13.5168 27.3762 14.2587C26.6368 15.0005 25.6974 15.5027 24.6769 15.7017C23.6563 15.9006 22.6006 15.7875 21.6434 15.3764C20.6863 14.9654 19.8707 14.2751 19.3 13.3928C18.7293 12.5105 18.4292 11.476 18.4377 10.4203C18.453 9.01057 19.0155 7.66396 20.0029 6.67332C20.9903 5.68268 22.3227 5.12812 23.7104 5.13026ZM19.6642 10.4684C19.6626 11.0062 19.7659 11.5389 19.9682 12.0358C20.1704 12.5327 20.4676 12.984 20.8426 13.3635C21.2176 13.743 21.6629 14.0432 22.1528 14.2468C22.6427 14.4504 23.1674 14.5534 23.6967 14.5497C24.2248 14.5489 24.7477 14.4426 25.2354 14.2366C25.723 14.0306 26.166 13.729 26.539 13.3491C26.9119 12.9692 27.2076 12.5184 27.409 12.0224C27.6105 11.5264 27.7138 10.9949 27.7131 10.4583C27.7124 9.92178 27.6077 9.39061 27.405 8.89516C27.2022 8.39971 26.9054 7.94969 26.5314 7.57079C26.1574 7.19188 25.7137 6.89152 25.2255 6.68684C24.7373 6.48216 24.2142 6.37719 23.686 6.3779C23.1563 6.37563 22.6315 6.48012 22.1418 6.68534C21.6522 6.89055 21.2074 7.1924 20.8334 7.57341C20.4594 7.95443 20.1634 8.40704 19.9627 8.90504C19.762 9.40304 19.6606 9.93653 19.6642 10.4746V10.4684Z" fill="#546DE5"/>
<path d="M23.0692 11.0783C22.6293 11.0783 22.2566 11.1543 21.9373 11.0534C21.7052 10.9805 21.3951 10.6748 21.3936 10.4731C21.392 10.2713 21.6991 9.95166 21.9251 9.87872C22.2444 9.77631 22.6201 9.85234 23.0661 9.85234C23.0661 9.48146 23.0661 9.18042 23.0661 8.88092C23.0783 8.44797 23.2326 8.03519 23.7107 8.13916C23.9429 8.19192 24.1689 8.58763 24.2682 8.87471C24.3614 9.1199 24.2881 9.43026 24.2881 9.84459C24.6715 9.84459 25.0518 9.75924 25.3451 9.86941C25.6185 9.97028 25.814 10.2884 26.0431 10.5088C25.811 10.7012 25.6063 10.9743 25.3405 11.0627C25.0472 11.159 24.699 11.0845 24.285 11.0845C24.285 11.4895 24.3583 11.8417 24.2636 12.1397C24.1796 12.405 23.9093 12.6052 23.7214 12.838C23.503 12.6052 23.1975 12.4066 23.0921 12.1288C22.9867 11.8511 23.0692 11.4833 23.0692 11.0783Z" fill="#546DE5"/>
</g>
<defs>
<clipPath id="clip0_264_1072">
<rect width="35.443" height="28.3544" fill="white" transform="translate(0.277344 0.164551)"/>
</clipPath>
</defs>
</svg>
