<svg width="36" height="35" viewBox="0 0 36 35" fill="none" xmlns="http://www.w3.org/2000/svg">
<ellipse cx="18.1595" cy="17.5" rx="17.5569" ry="17.5" fill="white" fill-opacity="0.2"/>
<g clip-path="url(#clip0_264_894)">
<path d="M17.6575 26C18.1897 26 18.7001 25.7893 19.0764 25.4142C19.4527 25.0391 19.6641 24.5304 19.6641 24H15.651C15.651 24.5304 15.8624 25.0391 16.2387 25.4142C16.615 25.7893 17.1254 26 17.6575 26ZM17.6575 11.918L16.8579 12.079C15.951 12.2632 15.1357 12.7541 14.5501 13.4686C13.9645 14.1831 13.6446 15.0774 13.6445 16C13.6445 16.628 13.5101 18.197 13.184 19.742C13.0235 20.509 12.8068 21.308 12.5189 22H22.7962C22.5083 21.308 22.2926 20.51 22.1311 19.742C21.805 18.197 21.6706 16.628 21.6706 16C21.6702 15.0776 21.3502 14.1835 20.7647 13.4692C20.1791 12.7549 19.3639 12.2642 18.4571 12.08L17.6575 11.918ZM23.8978 22C24.1215 22.447 24.3803 22.801 24.6803 23H10.6348C10.9347 22.801 11.1936 22.447 11.4173 22C12.3202 20.2 12.6413 16.88 12.6413 16C12.6413 13.58 14.3669 11.56 16.6593 11.099C16.6453 10.96 16.6607 10.8195 16.7045 10.6868C16.7483 10.554 16.8195 10.4319 16.9136 10.3283C17.0076 10.2246 17.1224 10.1418 17.2506 10.0851C17.3787 10.0284 17.5173 9.99912 17.6575 9.99912C17.7977 9.99912 17.9364 10.0284 18.0645 10.0851C18.1927 10.1418 18.3075 10.2246 18.4015 10.3283C18.4956 10.4319 18.5668 10.554 18.6106 10.6868C18.6544 10.8195 18.6698 10.96 18.6558 11.099C19.7897 11.3289 20.8091 11.9424 21.5414 12.8355C22.2736 13.7286 22.6737 14.8466 22.6738 16C22.6738 16.88 22.9949 20.2 23.8978 22Z" fill="white"/>
</g>
<defs>
<clipPath id="clip0_264_894">
<rect width="16.0521" height="16" fill="white" transform="translate(9.63184 10)"/>
</clipPath>
</defs>
</svg>
