<svg width="74" height="91" viewBox="0 0 74 91" fill="none" xmlns="http://www.w3.org/2000/svg">
<path d="M10.5273 8.17757C10.5273 7.24921 10.5132 6.47006 10.5273 5.69327C10.6072 2.17642 12.7451 0.009473 16.2245 0.009473C30.0481 0.00315767 43.8702 0 57.6906 0C61.1747 0 63.3291 2.15748 63.4043 5.66485C63.4231 6.44401 63.4043 7.22316 63.4043 8.16573C64.741 8.16573 65.9463 8.24388 67.1397 8.15152C71.7398 7.80102 74.3687 10.4274 73.9529 15.3084C73.5511 20.0638 72.5597 24.5777 69.8932 28.6014C67.7488 31.8977 64.5749 34.3787 60.874 35.6516C60.2743 35.8796 59.7746 36.3153 59.4644 36.8808C56.5497 42.9077 52.1451 48.0768 46.6745 51.8907C44.795 53.2004 43.9586 54.9434 43.9962 57.2169C44.0409 59.9025 44.0244 62.5881 43.9962 65.269C43.9962 65.9794 44.1137 66.3536 44.8725 66.6473C47.4216 67.6372 48.6315 69.4631 49.4021 73.2073C49.8579 73.2073 50.3418 73.2073 50.8423 73.2073C54.0068 73.2784 56.2246 75.3388 56.3116 78.498C56.4079 81.9699 56.3632 85.4465 56.3327 88.9183C56.3186 90.3393 55.6279 90.9574 54.176 90.9716C52.0216 90.9929 49.8696 90.9716 47.7153 90.9716H20.2278C18.0993 90.9716 17.5707 90.4529 17.566 88.3428C17.566 85.3825 17.566 82.4222 17.566 79.4619C17.566 75.2535 19.5559 73.25 23.7518 73.1955C23.9868 73.1955 24.2217 73.1742 24.5553 73.1576C24.8725 69.7923 26.5382 67.4312 29.9048 66.2731C29.9048 64.1843 29.9048 62.0671 29.9048 59.9499C29.8766 55.1115 30.4005 54.0719 25.4833 50.5219C20.6859 47.0761 17.1501 42.3751 14.5283 37.0086C14.2436 36.4317 13.766 35.9746 13.1797 35.7179C7.08316 33.5581 3.28895 29.1603 1.45646 23.0928C0.596591 20.2225 0.255935 17.1532 0.0233486 14.1456C-0.258574 10.4748 2.0344 8.22493 5.71819 8.17994C7.28286 8.15862 8.82638 8.17757 10.5273 8.17757ZM45.6243 73.1647C45.7277 71.3838 44.5577 70.0386 42.6477 69.7C40.834 69.3802 40.4933 68.9895 40.491 67.1233C40.491 64.0848 40.5967 61.0416 40.4652 58.0079C40.2819 53.8824 41.9382 50.9647 45.2508 48.5089C54.4791 41.6694 59.3657 32.3408 59.8168 20.7814C60.0047 15.8933 59.8732 10.9934 59.8732 6.09824C59.8732 4.12549 59.307 3.56185 57.3594 3.56185C43.7754 3.56185 30.1922 3.56185 16.6098 3.56185C14.641 3.56185 14.0701 4.11602 14.0678 6.06982C14.0678 10.5695 14.0678 15.0692 14.0678 19.5688C14.0502 24.0368 14.8721 28.4677 16.49 32.6274C19.1706 39.5119 23.5756 45.0157 29.5853 49.2312C32.2401 51.095 33.4547 53.6882 33.45 56.909C33.45 60.343 33.45 63.777 33.45 67.2109C33.45 68.9776 33.0741 69.4016 31.3356 69.6905C29.4349 70.0055 28.2673 71.3198 28.3025 73.1623L45.6243 73.1647ZM52.8251 87.3742C52.8251 84.7076 52.8251 82.1428 52.8251 79.5803C52.8251 77.2665 52.3552 76.7834 50.0952 76.7834H23.7824C23.4312 76.7643 23.079 76.7762 22.7299 76.8189C21.823 76.9776 21.1722 77.4915 21.1605 78.4554C21.1206 81.4062 21.1464 84.3571 21.1464 87.3742H52.8251ZM11.9581 31.2846C11.5117 28.0519 10.8774 24.8666 10.6565 21.6742C10.4216 18.4274 10.6048 15.1544 10.6048 11.7442C8.78644 11.7442 7.19358 11.7181 5.60307 11.7442C4.06894 11.7749 3.48865 12.412 3.51214 13.9537C3.55208 17.5393 4.14177 21.0135 5.62656 24.2935C7.02208 27.3651 9.10596 29.7807 11.9581 31.2846ZM63.409 11.7702C63.3737 18.4202 63.7849 24.9637 61.7644 31.3509C62.8616 30.728 63.8788 30.1147 64.7105 29.3095C69.2377 24.9471 70.3889 19.3297 70.3677 13.3261C70.3677 12.3788 69.677 11.8105 68.742 11.7844C67.0411 11.7347 65.326 11.7702 63.416 11.7702H63.409Z" fill="white"/>
<path d="M27.54 35.8389C27.8806 33.8851 28.2142 31.7016 28.6559 29.5394C28.8415 28.63 28.6864 27.9976 27.9816 27.3582C26.5015 26.0083 25.1154 24.5566 23.6729 23.1664C23.0339 22.5483 22.4841 21.7668 22.9822 20.9924C23.4496 20.35 24.1325 19.9006 24.904 19.7277C26.9691 19.3038 29.0835 19.1191 31.1627 18.7567C31.3908 18.7008 31.6057 18.5998 31.7949 18.4596C31.984 18.3193 32.1436 18.1426 32.2645 17.9397C33.2371 16.0948 34.144 14.2168 35.0344 12.3269C35.4267 11.4886 35.8943 10.7781 36.8974 10.771C37.9617 10.771 38.4245 11.5407 38.8333 12.4051C39.7049 14.2571 40.5836 16.1043 41.5492 17.9089C41.6817 18.124 41.8553 18.3105 42.0597 18.4576C42.2641 18.6047 42.4954 18.7096 42.7403 18.7662C44.7795 19.1309 46.8399 19.3891 48.8932 19.6804C49.7837 19.8059 50.5848 20.0451 50.8855 21.0492C51.1698 21.9965 50.6882 22.6217 50.0679 23.2256C48.6325 24.63 47.2229 26.0509 45.771 27.4316C45.2142 27.9598 44.9534 28.45 45.1249 29.2765C45.5525 31.3606 45.9307 33.4612 46.168 35.5737C46.2408 36.2131 45.98 37.1675 45.5266 37.5133C45.0732 37.859 44.0794 37.8472 43.5062 37.5843C41.6267 36.727 39.8012 35.7134 37.9922 34.6951C37.2357 34.2688 36.6249 34.2214 35.8449 34.6737C34.0101 35.7276 32.1282 36.701 30.2441 37.6601C28.8392 38.3658 27.5447 37.5867 27.54 35.8389ZM42.167 32.8928C41.9039 31.3108 41.6972 29.9207 41.4387 28.5423C41.2273 27.4316 41.4951 26.5649 42.3597 25.7975C43.377 24.8976 44.2979 23.8864 45.4139 22.778C43.9032 22.572 42.5946 22.3588 41.2837 22.2239C40.0268 22.0936 39.2233 21.4921 38.7299 20.2961C38.2366 19.1001 37.5623 17.9113 36.8998 16.5779C36.1715 18.0581 35.5066 19.3488 34.8958 20.6679C34.7373 21.0721 34.4702 21.4238 34.1245 21.6835C33.7789 21.9433 33.3683 22.1009 32.9388 22.1386C31.4916 22.3186 30.0491 22.5625 28.5173 22.7922C29.6144 23.9266 30.5612 24.971 31.5715 25.9373C31.9321 26.2411 32.1999 26.6418 32.3437 27.0928C32.4876 27.5438 32.5017 28.0267 32.3843 28.4855C32.1048 29.8567 31.9145 31.2469 31.6443 32.8833C32.8941 32.2321 33.9443 31.7916 34.877 31.1711C36.2467 30.257 37.4989 30.2238 38.8709 31.1474C39.8576 31.7892 40.9454 32.251 42.167 32.8928Z" fill="white"/>
<path d="M33.3347 83.886C32.2798 83.886 31.2203 83.9097 30.1677 83.886C28.9555 83.8481 28.2131 83.1755 28.1919 82.1524C28.1684 81.082 28.9343 80.3597 30.2077 80.3431C32.3566 80.3147 34.507 80.3147 36.659 80.3431C37.9371 80.3573 38.7076 81.0701 38.6959 82.1335C38.6842 83.1968 37.9112 83.8457 36.6191 83.8931H33.33L33.3347 83.886Z" fill="white"/>
<path d="M43.9685 80.3475C44.3155 80.3339 44.6587 80.4249 44.9541 80.6089C45.2495 80.793 45.4838 81.0616 45.6269 81.3806C45.77 81.6995 45.8155 82.0543 45.7576 82.3995C45.6996 82.7446 45.5408 83.0645 45.3016 83.3182C45.0623 83.5719 44.7533 83.7479 44.4143 83.8237C44.0752 83.8995 43.7215 83.8716 43.3982 83.7436C43.075 83.6156 42.797 83.3933 42.5998 83.1052C42.4025 82.817 42.295 82.4761 42.291 82.1261C42.2893 81.6688 42.4628 81.2286 42.7754 80.8972C43.0879 80.5658 43.5154 80.3689 43.9685 80.3475Z" fill="white"/>
</svg>
