<svg width="103" height="100" viewBox="0 0 103 100" fill="none" xmlns="http://www.w3.org/2000/svg">
<g clip-path="url(#clip0_264_1404)">
<path d="M79.0237 88.319C74.89 89.8757 70.7403 91.4045 66.6305 93.0248C66.0223 93.3007 65.539 93.7933 65.2752 94.4063C63.9159 97.9297 61.261 99.98 57.8448 99.98C54.4286 99.98 51.6621 97.8819 50.3148 94.47C49.95 93.7817 49.3545 93.2434 48.6326 92.9492C45.0609 91.3912 41.46 89.9049 37.8299 88.4902C37.1083 88.207 36.3088 88.1929 35.5776 88.4504C32.3886 89.8876 28.9086 89.4417 26.5169 87.1207C25.3423 85.9778 24.5639 84.4902 24.295 82.8747C24.0261 81.2591 24.2808 79.6 25.022 78.1391C25.5403 77.1079 25.3928 76.4471 24.9343 75.4478C23.3399 71.9682 21.9925 68.3771 20.4618 64.8697C20.1708 64.2009 19.5888 63.4325 18.955 63.1817C15.475 61.8161 13.442 59.1487 13.454 55.693C13.454 52.3528 15.5228 49.6097 18.8593 48.3119C19.4935 48.0829 20.025 47.6354 20.3581 47.0498C22.0802 43.1204 23.6946 39.1511 25.3409 35.1898C25.3993 35.0639 25.437 34.9295 25.4526 34.7917C22.3951 35.0465 19.2978 35.7472 16.2842 35.4764C8.77011 34.8195 3.58799 30.6034 1.11253 23.5607C-1.38286 16.3945 0.39102 9.98078 5.75252 4.59022C6.54977 3.79398 7.46262 3.03754 8.47114 4.11247C9.47966 5.1874 8.62262 6.00355 7.82537 6.79183C3.07376 11.4737 1.77823 17.8954 4.38524 23.7558C5.59426 26.5453 7.63302 28.8961 10.2251 30.4892C12.8171 32.0823 15.837 32.8408 18.8753 32.6617C20.4571 32.5211 22.0163 32.1909 23.5192 31.6784C25.2692 31.1409 26.764 31.2165 28.0396 32.6737C29.3152 34.1308 28.7014 35.5043 27.8642 36.8539C25.5059 40.5539 23.8819 44.6722 23.0807 48.9847C22.8535 50.2626 22.2117 50.8797 20.8405 51.039C18.1418 51.3495 16.3958 53.3521 16.4317 55.8164C16.4383 56.9928 16.8911 58.123 17.6988 58.9793C18.5066 59.8355 19.6093 60.3541 20.7847 60.4307C22.2835 60.5859 22.8814 61.2388 23.1206 62.5765C23.9503 67.1603 25.7526 71.5137 28.4064 75.3443C29.2036 76.5068 29.2275 77.3349 28.3147 78.5292C26.6165 80.6751 26.8438 83.3067 28.6455 85.0106C30.4473 86.7146 32.9068 86.842 34.9797 85.1579C36.1517 84.2024 37.0366 84.3298 38.1687 85.1022C42.013 87.7355 46.3684 89.5327 50.9526 90.3773C52.3837 90.648 52.9457 91.297 53.1052 92.7222C53.2039 93.8932 53.7432 94.9833 54.6145 95.7731C55.4859 96.5628 56.6244 96.9934 57.801 96.9781C58.9808 97.0132 60.1287 96.5924 61.0056 95.8033C61.8826 95.0142 62.421 93.9177 62.5087 92.7421C62.6881 91.1974 63.306 90.6082 64.7968 90.3255C69.3119 89.4762 73.5997 87.6944 77.3854 85.0942C78.5095 84.3259 79.4064 84.1945 80.5744 85.0942C82.731 86.7703 85.4017 86.5593 87.0839 84.8116C88.7661 83.0638 88.8897 80.5875 87.1318 78.3262C86.3345 77.2911 86.3824 76.455 87.072 75.4597C89.7915 71.5122 91.6445 67.0349 92.5092 62.3217C92.7484 61.0597 93.3623 60.6018 94.614 60.4147C97.4043 60.0166 99.0865 58.1335 99.0985 55.6771C99.0985 53.1212 97.4283 51.5207 94.4744 50.8757C94.0443 50.7393 93.6515 50.5056 93.3265 50.1928C93.0016 49.88 92.7533 49.4965 92.6009 49.0723C91.5525 44.3585 89.8424 39.9433 87.0999 35.9582C86.3505 34.8713 86.3744 34.0193 87.2115 32.9324C88.8857 30.7627 88.6944 28.1351 86.9404 26.4311C85.1865 24.7272 82.6393 24.5799 80.4588 26.3555C79.3267 27.2751 78.5095 27.0602 77.4532 26.3555C73.615 23.7163 69.2609 21.9185 64.6772 21.0804C63.3339 20.8415 62.6841 20.2443 62.4848 18.7633C62.13 16.0322 60.093 14.3362 57.6495 14.384C55.2059 14.4318 53.5755 16.1397 52.9776 18.9465C52.8142 19.7069 51.9452 20.742 51.2396 20.8933C46.6177 21.8559 42.2178 23.6763 38.2683 26.2599C36.9648 27.1199 35.8128 26.8213 34.601 25.9653C33.1939 24.97 32.3647 23.8394 32.5521 21.9841C32.7873 19.6989 33.2337 17.3181 32.859 15.1086C31.3682 6.51314 23.3996 1.26591 14.8611 3.01764C14.7296 3.04551 14.5781 3.16096 14.4625 3.12513C13.6891 2.82655 12.4694 2.69118 12.2501 2.14576C11.7279 0.951393 12.8241 0.238761 13.8446 0.210891C16.7984 0.127288 19.8878 -0.298707 22.6941 0.370139C32.006 2.59563 37.6226 11.8679 35.8048 21.2874C35.6813 21.9125 35.9244 22.6052 35.9962 23.278C36.652 23.2077 37.2994 23.0744 37.9295 22.8799C41.549 21.4307 45.1606 19.9577 48.7362 18.409C49.4031 18.1292 49.9457 17.617 50.263 16.9678C51.5705 13.5241 54.301 11.4419 57.7491 11.4459C61.1056 11.4459 63.88 13.4365 65.0759 16.8444C65.4266 17.8397 65.9648 18.1741 66.9374 18.5404C70.5849 19.9099 74.1366 21.5342 77.7561 22.9754C78.426 23.2524 79.1736 23.2779 79.8609 23.0471C83.2452 21.5342 86.6375 21.9642 89.0771 24.3569C91.5166 26.7496 91.9751 30.1695 90.4722 33.5615C90.2257 34.2363 90.2328 34.9776 90.4922 35.6476C91.9432 39.3263 93.4619 42.9797 95.0485 46.6079C95.3656 47.3261 95.9319 47.9058 96.643 48.2402C99.9197 49.4823 102.056 52.2532 102.1 55.5895C102.128 57.2238 101.629 58.8237 100.678 60.1534C99.7261 61.4831 98.3717 62.4722 96.8144 62.9746C95.7381 63.3409 95.3434 63.9301 94.9608 64.9414C93.6015 68.5244 92.0349 72.012 90.6197 75.5672C90.3646 76.2002 90.1773 77.092 90.4244 77.6573C92.0189 81.2763 91.6203 84.5329 89.1209 87.0211C86.6215 89.5094 83.2252 89.9274 79.5778 88.112C79.3426 87.9926 79.0955 87.901 78.8523 87.7975L79.0237 88.319Z" fill="#546DE5"/>
<path d="M25.3965 56.6048C25.4284 38.6894 38.6667 24.572 55.5684 23.4771C63.7728 22.8997 71.8886 25.471 78.2595 30.6663C84.6303 35.8616 88.7759 43.2892 89.8501 51.4332C93.0391 75.5195 69.4764 94.4542 46.6831 86.1016C46.3681 85.9861 45.9576 85.9463 45.7742 85.7035C45.26 85.0625 44.3631 84.2503 44.4787 83.681C44.7417 82.3991 45.9257 82.5623 46.9143 82.9604C51.0611 84.615 55.533 85.2961 59.9852 84.951C75.3601 83.9119 87.5182 70.6187 87.1435 55.2552C86.7727 40.0469 75.4518 27.9043 60.2762 26.4392C45.6546 25.0298 31.906 35.166 29.016 49.9283C26.7917 61.2867 30.451 70.8297 39.169 78.4377C39.6712 78.8717 40.3449 79.1902 40.6638 79.7237C40.9827 80.2572 41.1262 81.1728 40.8552 81.4555C40.6025 81.6721 40.3047 81.8299 39.9834 81.9174C39.6621 82.0048 39.3254 82.0198 38.9976 81.9611C38.3438 81.8059 37.7778 81.1967 37.2277 80.723C29.4983 74.1221 25.5799 65.7616 25.3965 56.6048Z" fill="#546DE5"/>
<path d="M65.2232 52.8026C63.151 52.82 61.1204 52.2217 59.3894 51.0839C57.6584 49.9461 56.3051 48.32 55.5015 46.4123C54.6979 44.5046 54.4802 42.4014 54.8761 40.3699C55.2721 38.3383 56.2637 36.4702 57.7251 35.0028C59.1865 33.5354 61.0516 32.535 63.0836 32.1287C65.1155 31.7223 67.2225 31.9284 69.1369 32.7208C71.0513 33.5131 72.6867 34.8559 73.8352 36.5786C74.9838 38.3013 75.5937 40.3261 75.5874 42.3957C75.5781 45.1433 74.4849 47.7765 72.5449 49.7246C70.6048 51.6726 67.9742 52.7785 65.2232 52.8026ZM65.1514 34.9469C63.1755 34.9469 61.2805 35.7308 59.8833 37.1263C58.4861 38.5217 57.7011 40.4143 57.7011 42.3878C57.7011 44.3612 58.4861 46.2538 59.8833 47.6493C61.2805 49.0447 63.1755 49.8287 65.1514 49.8287C67.1274 49.8287 69.0224 49.0447 70.4196 47.6493C71.8168 46.2538 72.6017 44.3612 72.6017 42.3878C72.6017 40.4143 71.8168 38.5217 70.4196 37.1263C69.0224 35.7308 67.1274 34.9469 65.1514 34.9469Z" fill="#546DE5"/>
<path d="M68.2451 64.4596C68.2491 63.1809 68.6332 61.9322 69.3485 60.8717C70.0639 59.8112 71.0783 58.9867 72.2634 58.5027C73.4484 58.0187 74.7507 57.897 76.0051 58.1529C77.2595 58.4089 78.4095 59.031 79.3095 59.9405C80.2095 60.8499 80.8189 62.0058 81.0604 63.2615C81.3019 64.5172 81.1648 65.8163 80.6662 66.9941C80.1677 68.1719 79.3303 69.1753 78.2602 69.8773C77.19 70.5792 75.9353 70.948 74.655 70.937C72.9465 70.9223 71.3132 70.2327 70.1121 69.019C68.911 67.8053 68.2398 66.1661 68.2451 64.4596ZM78.2108 64.372C78.1928 63.909 78.0837 63.4541 77.8896 63.0332C77.6956 62.6124 77.4204 62.2338 77.0799 61.9192C76.7393 61.6046 76.34 61.3601 75.9048 61.1996C75.4696 61.0391 75.007 60.9659 74.5434 60.984C73.6364 61.0314 72.7848 61.4344 72.1735 62.1052C71.5623 62.7761 71.2407 63.6608 71.2787 64.5671C71.3217 65.4703 71.7175 66.3207 72.3812 66.9358C73.0448 67.5509 73.9235 67.8817 74.8285 67.8573C75.7336 67.8328 76.593 67.4549 77.2223 66.8049C77.8517 66.1548 78.2008 65.2842 78.1948 64.38L78.2108 64.372Z" fill="#546DE5"/>
<path d="M50.8845 62.4014C50.8844 63.5862 50.5314 64.7442 49.8704 65.7281C49.2094 66.7119 48.2704 67.4772 47.1726 67.9265C46.0749 68.3758 44.8682 68.4888 43.706 68.2512C42.5438 68.0136 41.4786 67.4361 40.646 66.5921C39.8133 65.7482 39.2509 64.6759 39.0302 63.5118C38.8095 62.3477 38.9405 61.1443 39.4065 60.0547C39.8725 58.9652 40.6526 58.0387 41.6473 57.3931C42.6421 56.7476 43.8067 56.4122 44.9929 56.4296C46.5661 56.4443 48.0694 57.081 49.1736 58.2002C50.2778 59.3195 50.893 60.8301 50.8845 62.4014ZM45.0208 65.3634C45.6041 65.3431 46.1685 65.1518 46.6437 64.8133C47.1189 64.4749 47.4839 64.0043 47.6931 63.4601C47.9024 62.9159 47.9467 62.3223 47.8205 61.7531C47.6944 61.184 47.4033 60.6645 46.9835 60.2595C46.5638 59.8544 46.034 59.5816 45.4602 59.4752C44.8864 59.3687 44.2938 59.4333 43.7565 59.6608C43.2191 59.8883 42.7606 60.2687 42.4382 60.7547C42.1158 61.2406 41.9437 61.8105 41.9434 62.3934C41.9612 63.1935 42.2944 63.9543 42.8706 64.5104C43.4468 65.0665 44.2195 65.373 45.0208 65.3634Z" fill="#546DE5"/>
<path d="M12.545 25.2128C11.6741 25.1823 10.8315 24.8966 10.1221 24.3913C9.41261 23.886 8.8677 23.1834 8.55518 22.371C8.24267 21.5586 8.17637 20.6724 8.36455 19.8226C8.55273 18.9729 8.98706 18.1972 9.61346 17.5923C10.2398 16.9873 11.0306 16.5797 11.8873 16.4203C12.7439 16.261 13.6286 16.3568 14.431 16.696C15.2335 17.0352 15.9184 17.6026 16.4003 18.3277C16.8822 19.0528 17.1398 19.9034 17.1411 20.7737C17.1371 21.3683 17.0143 21.9562 16.78 22.5029C16.5457 23.0495 16.2046 23.544 15.7766 23.9574C15.3486 24.3708 14.8423 24.6947 14.2874 24.9103C13.7325 25.1258 13.1402 25.2287 12.545 25.2128ZM14.7135 20.7339C13.7209 20.077 13.1389 19.3843 12.5729 19.4042C12.1065 19.4042 11.2335 20.3597 11.3092 20.722C11.4162 21.0542 11.5996 21.3569 11.8446 21.6057C12.0896 21.8546 12.3895 22.0428 12.7204 22.1552C13.131 22.2468 13.7369 21.4664 14.7135 20.7339Z" fill="#546DE5"/>
<path d="M24.5316 12.3575C25.4124 12.3567 26.2735 12.6173 27.0057 13.1062C27.7379 13.5951 28.3082 14.2903 28.6441 15.1034C28.9801 15.9166 29.0666 16.8111 28.8926 17.6734C28.7186 18.5357 28.292 19.327 27.667 19.9467C27.042 20.5665 26.2467 20.9868 25.382 21.1543C24.5174 21.3219 23.6224 21.2291 22.8106 20.8877C21.9989 20.5463 21.307 19.9718 20.8228 19.237C20.3386 18.5022 20.0839 17.6403 20.091 16.7607C20.1076 15.5926 20.5818 14.4775 21.4119 13.6544C22.242 12.8313 23.3619 12.3657 24.5316 12.3575ZM22.5385 16.8443C23.5351 17.5331 24.1809 18.2975 24.5835 18.182C24.9063 18.052 25.1943 17.8487 25.4247 17.5882C25.6551 17.3276 25.8216 17.0171 25.9109 16.6811C25.9747 16.3108 25.0578 15.4031 24.5914 15.4111C24.0294 15.423 23.4753 16.1396 22.5226 16.8443L22.5385 16.8443Z" fill="#546DE5"/>
<path d="M57.6858 81.0653C56.513 81.0548 55.3923 80.5796 54.5701 79.7443C53.7479 78.9089 53.2914 77.7817 53.3009 76.6103C53.2987 75.7227 53.5614 74.8545 54.0554 74.1165C54.5494 73.3786 55.2523 72.8044 56.0745 72.4672C56.8966 72.13 57.8008 72.0451 58.6715 72.2233C59.5422 72.4015 60.34 72.8348 60.963 73.4678C61.5861 74.1008 62.0062 74.9049 62.1697 75.7775C62.3332 76.65 62.2327 77.5514 61.8811 78.3666C61.5294 79.1819 60.9425 79.874 60.1953 80.3546C59.4481 80.8353 58.5744 81.0827 57.6858 81.0653ZM57.8253 74.6078C57.1237 75.4876 56.3384 76.0609 56.4142 76.479C56.5258 77.0722 57.2672 77.5499 57.7376 78.0714C58.2239 77.5658 58.9734 77.1159 59.1009 76.5307C59.1966 76.1127 58.4591 75.5155 57.8253 74.6078Z" fill="#546DE5"/>
<path d="M41.9041 43.4069C42.6296 42.9013 43.3113 42.0812 44.0926 41.9657C44.3569 41.9093 44.6313 41.9208 44.8899 41.9994C45.1485 42.0779 45.3829 42.2208 45.571 42.4147C45.7591 42.6085 45.8948 42.847 45.9653 43.1076C46.0358 43.3682 46.0389 43.6425 45.9741 43.9046C45.8067 44.6491 44.8221 45.6842 44.1643 45.716C43.4189 45.7479 42.6336 44.8003 41.8643 44.2788L41.9041 43.4069Z" fill="#546DE5"/>
<path d="M57.8252 61.2987C58.6224 60.801 59.4197 59.8814 60.1611 59.9411C60.8229 59.9928 61.7756 61.0558 61.9191 61.8003C61.9761 62.0642 61.9651 62.3382 61.887 62.5966C61.8089 62.8551 61.6663 63.0895 61.4726 63.2777C61.2789 63.466 61.0405 63.602 60.7797 63.673C60.5189 63.744 60.2443 63.7475 59.9818 63.6834C59.2044 63.5441 58.5467 62.708 57.8372 62.1825L57.8252 61.2987Z" fill="#546DE5"/>
<path d="M61.8428 43.3711C62.5763 42.8774 63.2699 42.0652 64.0552 41.9657C64.3227 41.912 64.5995 41.9278 64.8591 42.0115C65.1188 42.0951 65.3526 42.244 65.5381 42.4437C65.7237 42.6434 65.8549 42.8874 65.9191 43.1522C65.9833 43.417 65.9784 43.6939 65.9048 43.9563C65.7294 44.6968 64.709 45.72 64.0632 45.7359C63.3217 45.7598 62.5524 44.7963 61.791 44.2628L61.8428 43.3711Z" fill="#546DE5"/>
</g>
<defs>
<clipPath id="clip0_264_1404">
<rect width="100" height="102.128" fill="white" transform="translate(0 100) rotate(-90)"/>
</clipPath>
</defs>
</svg>
