<svg width="100" height="100" viewBox="0 0 100 100" fill="none" xmlns="http://www.w3.org/2000/svg">
<path d="M100 56.4133V59.637C94.9515 59.637 89.9757 59.8949 85.0401 59.5524C81.2175 59.2864 78.2255 60.2011 76.0561 63.3643C75.1004 64.7626 73.9795 66.1608 73.4754 67.7324C69.5923 79.821 62.8462 89.9433 53.0155 98.0064C50.8219 99.8036 48.3944 100.489 45.6847 99.5497C32.4426 94.9681 20.265 88.6498 10.6237 78.1729C3.88977 70.8432 0.167939 62.2763 0.0348728 52.3153C-0.078032 43.8532 3.78493 37.688 11.3778 33.8922C11.7326 33.7149 12.0754 33.5255 12.9262 33.0863C11.5713 31.8774 10.531 30.6685 9.23662 29.8626C7.3011 28.6538 5.16398 27.8035 3.14782 26.7397C-0.078032 25.0312 -0.884495 22.0251 1.00666 18.9627C1.46634 18.2253 1.94619 17.4879 2.47039 16.7948C4.35751 14.2924 7.34949 13.7766 9.9584 15.5416C11.2931 16.4442 12.523 17.4959 13.8576 18.3985C14.2286 18.6484 14.9786 18.8015 15.2407 18.6202C15.5028 18.4388 15.644 17.6692 15.5391 17.2259C14.8093 14.091 13.9947 10.9761 13.2367 7.84515C12.3576 4.21452 13.8093 1.76455 17.3375 0.829695C24.0876 -0.951367 25.8538 0.354208 26.2691 7.30922C26.503 11.1937 26.9869 15.0701 27.0998 18.9587C27.1965 22.3193 29.6038 23.9835 31.6845 26.1031C32.643 25.3901 33.5511 24.6119 34.4023 23.774C34.7589 23.2685 34.9036 22.6438 34.8055 22.0332C34.0676 17.2542 33.3418 12.4912 32.4426 7.73232C31.4143 2.32063 35.8862 0.0278141 39.6483 0.0399028C41.8218 0.0399028 43.4871 1.81694 43.7653 4.27093C44.1 7.20042 44.2532 10.1501 44.8097 13.136C45.3124 10.2078 45.8326 7.27698 46.3702 4.34347C47.1001 0.225262 50.2654 -1.17702 53.7735 1.05938C58.1768 3.88007 58.9268 5.94723 57.2978 10.8472C56.4769 13.1349 55.8035 15.4728 55.2816 17.8465C56.4268 16.0372 57.5397 14.2199 58.7333 12.4227C60.4148 9.90425 63.0801 9.04595 65.7576 10.0896C69.5318 11.5564 70.548 15.2112 68.0116 18.3703C66.2092 20.6148 64.3342 22.8028 62.3664 25.14C68.06 30.0319 69.0762 36.7693 70.2133 43.4986C71.1851 49.2488 72.3746 54.9667 73.5682 61.2287C75.0279 59.7821 76.1972 58.5651 77.4392 57.4248C77.9029 56.9976 78.5279 56.4698 79.0803 56.4657C86.0079 56.4133 92.9193 56.4133 100 56.4133ZM3.75267 55.8573C3.69524 56.1429 3.66019 56.4326 3.64783 56.7236C3.68366 57.1292 3.74018 57.5327 3.81718 57.9325C5.12365 64.8996 8.30112 70.9197 13.1278 76.1179C22.4021 86.0991 34.0636 92.0789 46.6968 96.4993C48.3097 97.0635 49.717 96.5356 50.9912 95.4839C60.4653 87.8242 67.3198 77.4087 70.6044 65.6813C70.8137 65.0524 70.8839 64.3856 70.8101 63.727C70.3585 61.1682 69.806 58.6256 69.2899 56.0708L68.927 55.9983L62.9632 76.6538C61.6446 72.4187 60.6728 68.2441 59.6849 64.0695C58.7172 59.9835 57.7413 55.8976 56.7575 51.8116C56.1474 52.9794 55.7152 54.2316 55.4752 55.5268C54.5276 59.637 54.5276 59.6773 50.3098 59.637C48.9831 59.637 48.2493 59.8707 47.6404 61.2972C47.0983 62.5702 46.2325 63.6795 45.1289 64.5149C44.0253 65.3503 42.7223 65.8828 41.3491 66.0596C39.976 66.2363 38.5805 66.0512 37.3011 65.5226C36.0217 64.994 34.9028 64.1402 34.0555 63.046C32.0394 60.4308 31.6361 57.5174 33.1241 54.5315C34.612 51.5456 37.0959 49.9661 40.4024 50.0023C43.8016 50.0305 46.346 51.6786 47.6605 54.8096C48.1968 56.0668 48.7815 56.6511 50.1364 56.4214C50.7417 56.3557 51.3501 56.3234 51.959 56.3247C53.3945 49.9338 54.8058 43.6316 56.2171 37.3334H56.6647C58.7561 46.1501 60.8476 54.9681 62.939 63.7874C64.3221 60.2011 65.1931 56.6148 66.3906 53.1373C67.4915 49.9137 67.8463 46.8029 66.9269 43.5188C65.8826 39.7914 64.9874 36.0238 63.8624 32.3247C63.693 31.7726 62.5841 31.0876 61.9753 31.144C58.4254 31.4858 55.0232 32.7347 52.0961 34.7706C49.7772 36.3432 47.2086 37.5122 44.4992 38.228C39.2895 39.5779 34.4184 38.1796 29.8538 35.1212C29.5474 35.8465 29.1683 36.4268 29.0474 37.0554C28.4708 40.408 27.6401 43.7565 27.4869 47.1293C27.1562 54.3542 21.6723 59.7941 14.4383 59.6209C10.5915 59.5483 7.13175 58.2025 3.75267 55.8573ZM25.2893 36.3663C24.4586 36.2051 23.4142 35.9875 22.3618 35.8022C12.9746 34.142 4.83736 39.9607 3.44621 49.3778C3.40672 49.8158 3.45406 50.2573 3.58552 50.677C3.71699 51.0967 3.93 51.4863 4.21235 51.8237C6.67907 54.4456 10.0308 56.0607 13.6197 56.3569C19.2005 56.9291 23.7005 53.3066 24.1844 47.9674C24.5231 44.1837 24.9022 40.3999 25.2893 36.3663ZM27.1159 33.1024L29.8377 28.3032C29.0312 27.6746 28.1724 27.0298 27.3498 26.3489C25.0917 24.4791 24.0675 22.0413 23.8981 19.14C23.6683 15.2595 23.2852 11.3871 23.0392 7.50666C22.7368 2.79209 22.5795 2.66314 18.0634 3.99289C16.4504 4.46838 15.9061 5.38309 16.3254 7.00297C17.1319 10.1783 17.8859 13.3777 18.7448 16.549C19.269 18.5275 18.8335 20.1756 17.1722 21.3482C15.4061 22.6054 13.648 22.3193 11.9786 21.0419C10.8052 20.1433 9.61162 19.277 8.43419 18.3865C7.38982 17.5805 6.18415 17.371 5.38575 18.455C4.43413 19.7444 2.74459 20.8203 3.4825 22.7908C3.66396 23.2743 4.28897 23.6491 4.8051 23.9352C5.90996 24.5597 7.0511 25.144 8.21241 25.6558C11.4584 27.1104 14.4907 28.7908 15.4706 32.0144L27.1159 33.1024ZM60.4833 28.0695C52.8219 19.4422 36.9668 21.2394 31.5877 32.1433C36.5233 36.4227 44.2169 36.6564 49.8299 32.5221C52.9751 30.2213 56.3462 28.5732 60.4833 28.0695ZM38.0556 21.4449C38.9977 21.178 39.9172 20.8371 40.8056 20.4254C41.0322 20.2804 41.2227 20.0856 41.3624 19.8559C41.5022 19.6261 41.5876 19.3675 41.6121 19.0997C41.3433 14.3529 40.9965 9.61009 40.5717 4.87134C40.5217 4.55541 40.4007 4.25493 40.2177 3.9925C40.0347 3.73007 39.7945 3.51253 39.5153 3.35622C37.9023 2.69135 35.2934 4.69404 35.5636 6.47107C36.3176 11.4274 37.2048 16.3556 38.0556 21.4449ZM47.1081 19.2649C47.591 19.2558 48.0739 19.2868 48.5517 19.3576C50.4066 19.8411 51.2896 19.1803 51.7533 17.2703C52.3703 14.7437 53.3663 12.3018 54.1727 9.82366C55.3018 6.43883 54.955 5.54024 51.9711 3.74306C50.6445 2.93715 49.834 3.12654 49.5517 4.74642C48.7654 9.50129 47.9549 14.2562 47.1081 19.2649ZM45.1847 58.0735C45.1941 57.1188 44.9205 56.1826 44.3983 55.3831C43.8761 54.5835 43.1287 53.9564 42.2504 53.5806C41.372 53.2049 40.402 53.0974 39.4627 53.2717C38.5233 53.4461 37.6566 53.8944 36.9718 54.5602C36.287 55.226 35.8148 56.0795 35.6147 57.0131C35.4146 57.9467 35.4955 58.9186 35.8473 59.8063C36.1991 60.694 36.806 61.4578 37.5915 62.0013C38.377 62.5449 39.306 62.8439 40.2612 62.8606C41.5483 62.8746 42.7886 62.379 43.7112 61.482C44.6337 60.585 45.1635 59.3596 45.1847 58.0735ZM59.8865 23.0487C61.7091 20.8727 63.4229 18.8136 65.1285 16.7585C65.935 15.7955 66.7737 14.8324 65.4995 13.6477C65.2393 13.379 64.9224 13.1717 64.5719 13.0409C64.2214 12.9101 63.8461 12.859 63.4733 12.8914C63.1005 12.9239 62.7397 13.039 62.4171 13.2283C62.0945 13.4177 61.8182 13.6766 61.6083 13.9862C59.9954 16.3394 58.5317 18.8216 56.947 21.32L59.8865 23.0487Z" fill="#546DE5"/>
</svg>
