<svg width="84" height="101" viewBox="0 0 84 101" fill="none" xmlns="http://www.w3.org/2000/svg">
<path d="M41.8054 8.82006C42.0757 8.41393 42.3674 8.02272 42.6795 7.6481C52.6939 -3.08312 68.1196 -2.4112 77.1979 9.12476C87.0764 21.6803 84.8622 41.7325 71.8566 50.8581C71.2402 51.3735 70.8383 52.1025 70.7301 52.9013C69.2267 64.6521 66.3016 75.9966 61.1507 86.6888C59.6862 89.728 58.0819 92.7048 56.4193 95.6386C54.3022 99.3654 52.0607 100.608 49.2056 99.8498C46.23 99.0685 44.8276 96.7246 44.8237 92.4978V69.254C44.8237 68.7344 44.8237 68.2109 44.8237 67.6914C44.6994 65.8748 43.4292 64.5661 41.7627 64.5271C40.1778 64.4841 38.7405 65.8201 38.5462 67.5781C38.4949 68.2278 38.4807 68.8799 38.5035 69.5313C38.5035 77.6686 38.5268 85.802 38.5035 93.9393C38.5035 96.92 36.8914 99.0178 34.2771 99.7991C31.822 100.514 29.4019 99.5061 27.7704 97.0879C27.7005 96.9825 27.6383 96.8653 27.5723 96.752C19.7843 84.0335 14.8132 69.7766 12.9973 54.9522C12.7137 52.6903 11.964 51.1589 10.1111 49.6784C-3.48501 38.8182 -3.31797 15.758 10.3014 4.9565C18.9252 -1.95023 30.4896 -1.60255 38.7366 5.77297C39.7 6.64412 40.5779 7.59731 41.8054 8.82006ZM35.2249 80.9071H35.3182C35.3182 76.3521 35.1939 71.7932 35.3648 67.2343C35.4343 65.8872 35.9353 64.5988 36.793 63.5617C37.6507 62.5246 38.819 61.7943 40.1234 61.48C42.5746 60.8354 45.4686 61.7222 46.7544 63.9841C47.5557 65.4487 47.9929 67.0865 48.0285 68.7578C48.1567 76.1802 48.0829 83.6026 48.0907 91.025C48.0907 92.197 47.9081 93.4392 48.2461 94.5096C48.518 95.3612 49.3493 96.373 50.1379 96.6074C50.8216 96.8106 51.8354 96.0879 52.624 95.6347C52.9697 95.4394 53.1251 94.8964 53.3582 94.5096C61.3954 81.2274 65.8782 66.7733 67.6923 51.3894C67.7972 50.487 68.3449 49.3033 69.0597 48.8541C80.8455 41.502 83.7434 23.6648 75.275 11.8984C70.1862 4.83931 62.1024 1.74144 54.3488 3.94862C49.7494 5.25731 46.1911 8.07 43.367 11.8828C42.2016 13.4454 41.2033 13.4454 39.9758 11.9023C39.4086 11.1952 38.8609 10.4647 38.2549 9.79278C31.3908 2.24538 20.8053 1.10467 12.8147 7.03477C0.108238 16.4651 -0.128723 38.0565 12.5817 47.4712C14.9979 49.2604 15.7321 51.1902 16.0545 53.8662C17.757 68.3802 22.5592 82.3526 30.1322 94.826C30.8703 96.0488 31.7249 97.1114 33.3836 96.6465C35.0423 96.1816 35.2327 94.8534 35.2288 93.4041C35.2172 89.2397 35.2249 85.0754 35.2249 80.9071Z" fill="#546DE5"/>
<path d="M19.166 29.0208C16.5089 29.0208 14.1898 28.97 11.8707 29.0208C10.2003 29.0677 9.50886 28.3059 9.53994 26.6769C9.57102 25.0479 9.58656 23.4267 9.53994 21.8016C9.48556 20.0827 10.212 19.2897 11.96 19.3327C14.2908 19.3912 16.5944 19.3327 19.1698 19.3327C19.1698 16.8364 19.2242 14.5198 19.1698 12.2072C19.1155 10.3945 19.8225 9.55853 21.6832 9.6601C23.2953 9.74605 24.9151 9.72261 26.5311 9.6601C28.1471 9.5976 28.9046 10.3008 28.8619 11.9728C28.8075 14.3167 28.8619 16.6606 28.8619 19.3248C31.1926 19.3248 33.4069 19.3248 35.6327 19.3248C38.1927 19.3248 38.5034 19.6686 38.5151 22.286C38.5151 23.8486 38.5151 25.4112 38.5151 26.9738C38.5151 28.3216 37.8392 28.9974 36.4679 28.9857C34.0245 28.9857 31.5772 28.9857 28.8697 28.9857C28.8697 31.4702 28.8697 33.7829 28.8697 36.0994C28.8697 38.334 28.5123 38.6621 26.2437 38.6778C24.6898 38.6778 23.136 38.6231 21.5822 38.6778C19.7953 38.7598 19.1465 37.8964 19.1854 36.2049C19.2087 33.9235 19.166 31.5952 19.166 29.0208ZM22.4018 12.9846V17.9732C22.4018 22.6063 22.4018 22.6063 17.884 22.6063H12.9156V25.7862C15.2464 25.7862 17.5033 25.7862 19.7525 25.7862C22.0017 25.7862 22.3707 26.1417 22.394 28.3723C22.4174 30.7163 22.394 33.0289 22.394 35.365H25.6377V30.4115C25.6377 25.8019 25.6377 25.8019 30.1399 25.8019H35.12V22.6219C32.7037 22.6219 30.3885 22.5829 28.0772 22.6219C26.3719 22.6649 25.5716 21.9891 25.626 20.2038C25.6998 17.8169 25.626 15.4261 25.626 12.9689L22.4018 12.9846Z" fill="#546DE5"/>
<path d="M59.373 9.45286V6.8394C67.4918 4.88614 77.9569 17.1721 76.7644 27.2979H73.8859C72.9652 18.2425 69.5623 11.2264 59.373 9.45286Z" fill="#546DE5"/>
</svg>
