<svg width="96" height="93" viewBox="0 0 96 93" fill="none" xmlns="http://www.w3.org/2000/svg">
<path d="M74.546 56.7505C74.5216 61.5594 73.145 66.2682 70.5682 70.3573C70.0723 71.1393 69.9869 71.6831 70.4965 72.5219C72.9134 76.5082 75.2668 80.5289 77.5569 84.5838C77.8655 85.1249 78.0225 86.1206 77.7195 86.5238C77.3613 87.0054 76.4054 87.3355 75.7526 87.2705C73.6545 87.0621 71.5684 86.7505 69.5021 86.3371C68.4966 86.1423 67.8079 86.2342 67.1633 87.1488C66.1909 88.5016 65.0614 89.7652 63.9678 91.0395C62.7832 92.4194 61.6318 92.3274 60.7089 90.769C59.1112 88.0876 57.5079 85.409 55.968 82.6925C55.5548 81.962 55.1609 81.824 54.3345 82.0269C50.1755 83.0565 45.8216 83.0565 41.6626 82.0269C40.8362 81.8294 40.4423 81.9295 40.0098 82.6736C38.4727 85.3792 36.8666 88.0687 35.2689 90.75C34.3405 92.3085 33.1863 92.4086 32.0128 91.0206C30.8916 89.711 29.7484 88.4123 28.7264 87.027C28.1424 86.2343 27.5226 86.1206 26.6162 86.2884C24.5447 86.6726 22.4648 87.0459 20.3685 87.2408C19.6715 87.3057 18.6523 87.0081 18.2721 86.5129C17.9553 86.1017 18.1509 85.041 18.476 84.4647C20.7707 80.4062 23.1343 76.3964 25.5336 72.4001C25.9744 71.6669 25.922 71.1772 25.484 70.471C16.1978 55.4924 23.9056 36.3362 41.1172 31.6202C56.3372 27.4534 72.2458 37.8432 74.1989 53.2656C74.3477 54.4209 74.433 55.5871 74.546 56.7505ZM48.0647 79.4944C51.1416 79.538 54.1965 78.9788 57.0509 77.8495C59.9054 76.7203 62.502 75.0437 64.6892 72.9176C66.8764 70.7915 68.6103 68.2586 69.7895 65.4668C70.9687 62.6751 71.5697 59.6806 71.5572 56.6581C71.5448 53.6357 70.9192 50.646 69.717 47.8638C68.5148 45.0815 66.7602 42.5625 64.5555 40.4538C62.3509 38.3452 59.7405 36.6892 56.8769 35.5827C54.0132 34.4762 50.9538 33.9413 47.8773 34.0093C35.1725 34.0445 24.8367 44.2719 24.8422 56.8073C24.8381 59.798 25.4369 62.7599 26.6041 65.5222C27.7712 68.2845 29.4836 70.7925 31.6424 72.9016C33.8013 75.0106 36.3639 76.6791 39.1824 77.8106C42.001 78.9421 45.0198 79.5144 48.0647 79.4944ZM58.7586 81.0015L62.6152 87.4951C63.7502 86.1423 64.7364 85.0113 65.6592 83.8343C66.3451 82.9577 67.1027 82.6005 68.2734 82.8576C69.7913 83.1958 71.3533 83.3392 73.1852 83.607L67.885 74.543L58.7586 81.0015ZM28.0983 74.5538C26.4454 77.3515 24.6934 80.3602 22.7789 83.6233C24.5915 83.3527 26.1039 83.2255 27.5611 82.8792C28.8393 82.5762 29.6575 82.9793 30.4013 83.9425C31.3021 85.1114 32.291 86.2153 33.3681 87.4978L37.2 80.9825L28.0983 74.5538Z" fill="white"/>
<path d="M39.3923 23.2732C39.7201 21.4631 40.0149 19.5475 40.4364 17.6562C40.5453 17.3166 40.5445 16.9522 40.434 16.613C40.3235 16.2739 40.1088 15.9767 39.8193 15.7623C38.465 14.6129 37.1775 13.3898 35.9627 12.0988C35.4861 11.5739 35.0261 10.5782 35.2272 10.0425C35.4282 9.50674 36.4172 9.01971 37.1362 8.87361C38.8359 8.52187 40.5769 8.35953 42.3096 8.17013C42.6707 8.15234 43.0185 8.03045 43.3095 7.81969C43.6005 7.60893 43.8219 7.31863 43.9459 6.98505C44.6924 5.3427 45.461 3.70035 46.3673 2.13918C46.6814 1.59804 47.4279 0.991973 47.9789 0.989267C48.5298 0.986561 49.2846 1.59263 49.5959 2.13106C50.5215 3.73282 51.2212 5.45904 52.1247 7.07433C52.4328 7.576 52.9263 7.94144 53.5021 8.09437C55.2541 8.42717 57.0557 8.51646 58.8022 8.8709C59.524 9.01971 60.3945 9.45533 60.7719 10.0289C61.3228 10.8542 60.6727 11.6118 59.984 12.2341C58.67 13.4273 57.3505 14.6178 56.1274 15.903C55.7493 16.3484 55.5625 16.921 55.6067 17.4993C55.8491 19.3716 56.3092 21.2196 56.5351 23.0919C56.6067 23.6709 56.3753 24.5719 55.9593 24.8425C55.4773 25.1537 54.5351 25.1482 53.9704 24.8966C52.1798 24.0849 50.4912 23.0784 48.7199 22.2342C48.489 22.1398 48.2414 22.0912 47.9912 22.0912C47.7411 22.0912 47.4935 22.1398 47.2626 22.2342C45.4528 23.1028 43.7118 24.1282 41.9046 24.9913C40.4667 25.7002 39.3179 24.9237 39.3923 23.2732ZM43.249 20.5919C44.5161 19.9425 45.5932 19.4582 46.596 18.8576C47.5987 18.2569 48.4527 18.2975 49.4223 18.8576C50.392 19.4176 51.4746 19.9398 52.728 20.5892C52.4718 19.1308 52.1275 17.9457 52.1027 16.7525C52.0993 15.9467 52.3515 15.1599 52.8244 14.5014C53.5407 13.5436 54.5159 12.7698 55.5571 11.747C54.3451 11.5631 53.3258 11.3141 52.2983 11.2735C50.8879 11.2221 50.0118 10.6215 49.4967 9.33357C49.1083 8.35412 48.5684 7.4396 47.9871 6.26534C47.337 7.57759 46.7695 8.63821 46.2819 9.73401C45.8467 10.7135 45.136 11.1599 44.0781 11.2465C42.9239 11.3385 41.7779 11.5495 40.5576 11.7173C41.5465 12.7427 42.3702 13.641 43.2407 14.4906C43.9156 15.1454 44.2049 15.8245 43.9542 16.7877C43.6456 17.962 43.5079 19.166 43.249 20.5919Z" fill="white"/>
<path d="M26.1394 25.0373C25.616 25.8193 25.368 26.3496 24.9741 26.7419C23.7179 27.9919 22.4425 29.2284 21.1175 30.3946C20.4591 30.9682 20.2139 31.5147 20.4067 32.3859C20.8136 34.1426 21.1262 35.9191 21.3434 37.708C21.415 38.3249 21.2029 39.2529 20.7676 39.5668C20.3324 39.8807 19.3517 39.8374 18.7787 39.5668C17.0708 38.8011 15.4262 37.8947 13.8009 36.9694C13.5242 36.7808 13.1955 36.6798 12.8588 36.6798C12.522 36.6798 12.1933 36.7808 11.9166 36.9694C10.3414 37.8919 8.71951 38.7353 7.05727 39.4965C6.4402 39.767 5.40442 39.8644 4.94989 39.5316C4.49536 39.1988 4.33007 38.2059 4.39894 37.543C4.61258 35.8448 4.91601 34.1587 5.30801 32.4915C5.51737 31.5391 5.25566 30.9005 4.51739 30.262C3.16704 29.1075 1.8797 27.8837 0.660756 26.5958C0.250299 26.1872 -0.1271 25.3512 0.0409389 24.8912C0.23928 24.3501 0.991325 23.79 1.59461 23.6656C3.43203 23.2922 5.32729 23.1866 7.16195 22.8322C7.82359 22.663 8.39425 22.2515 8.75694 21.6823C9.6605 20.1184 10.3271 18.4355 11.2362 16.8608C11.5475 16.3196 12.283 15.6919 12.8285 15.6892C13.3739 15.6865 14.1287 16.3007 14.44 16.8418C15.3656 18.4463 16.057 20.1779 16.9716 21.7878C17.3076 22.3184 17.8397 22.7004 18.4564 22.8538C20.3434 23.2164 22.2827 23.33 24.1642 23.7197C24.8336 23.8577 25.3873 24.5151 26.1394 25.0373ZM12.8477 20.9788C12.1535 22.3749 11.7238 23.5411 11.0379 24.5395C10.5763 25.1633 9.92382 25.6259 9.17566 25.8599C7.98837 26.2116 6.71843 26.2874 5.46503 26.4822C6.37409 27.44 7.13715 28.3355 7.99939 29.1283C8.35442 29.4177 8.61813 29.8004 8.75962 30.2317C8.90111 30.663 8.91452 31.1249 8.79826 31.5634C8.54758 32.7404 8.36301 33.9282 8.10958 35.3297C9.38502 34.6695 10.4924 34.1473 11.5475 33.5359C11.9306 33.2865 12.3799 33.1535 12.8395 33.1535C13.299 33.1535 13.7484 33.2865 14.1314 33.5359C15.181 34.1392 16.2691 34.6722 17.5583 35.3487C17.3132 33.9363 17.1396 32.7864 16.9082 31.65C16.7781 31.1692 16.7963 30.6612 16.9606 30.1905C17.1249 29.7199 17.4279 29.3078 17.8311 29.0066C18.6988 28.295 19.4839 27.486 20.4977 26.5282C19.0073 26.2765 17.809 26.0276 16.5997 25.9194C15.5501 25.8274 14.9468 25.3241 14.5336 24.4096C14.0488 23.3409 13.4979 22.31 12.8477 20.9761V20.9788Z" fill="white"/>
<path d="M89.9665 39.9619C89.5649 39.8184 89.1713 39.654 88.7875 39.4695C87.2476 38.6578 85.6994 37.8839 84.1953 37.0344C83.4901 36.6312 82.9199 36.5825 82.1871 37.0046C80.5755 37.9533 78.9149 38.8194 77.2121 39.5993C76.6446 39.851 75.6639 39.8888 75.2259 39.5642C74.7879 39.2395 74.5923 38.3141 74.6749 37.6972C74.887 35.8655 75.3498 34.0662 75.5647 32.2372C75.5955 31.6113 75.3794 30.9979 74.9614 30.5245C73.6832 29.1717 72.2315 27.9812 70.956 26.631C70.5538 26.2008 70.1819 25.354 70.35 24.894C70.5456 24.3529 71.2976 23.7955 71.9009 23.6737C73.7356 23.2976 75.6281 23.2056 77.4655 22.8404C78.1283 22.6703 78.6992 22.2567 79.0605 21.6851C79.9448 20.1645 80.5839 18.5086 81.4709 16.9907C81.8097 16.4063 82.5535 15.7082 83.1237 15.6974C83.694 15.6866 84.468 16.363 84.8041 16.9366C85.697 18.5079 86.5025 20.1256 87.2173 21.7825C87.5616 22.5482 88.0437 22.8404 88.8701 22.9243C90.6948 23.0823 92.5092 23.3388 94.3052 23.6927C94.9498 23.8307 95.7735 24.3934 95.9718 24.9481C96.1426 25.4243 95.6798 26.3009 95.2418 26.7663C93.9994 28.0867 92.5752 29.242 91.3329 30.5543C90.9168 31.0343 90.7065 31.654 90.7461 32.2832C90.9747 34.1095 91.3935 35.9115 91.7268 37.727C91.9499 39.0068 91.3081 39.9267 89.9665 39.9619ZM75.5234 26.5012C76.4573 27.3994 77.1156 28.157 77.9007 28.755C79.0825 29.6533 79.3387 30.7301 78.9861 32.0992C78.7327 33.0732 78.6307 34.0825 78.4352 35.3054C79.7492 34.6236 80.7905 33.9337 81.9337 33.544C82.7198 33.2938 83.5662 33.2938 84.3523 33.544C85.5396 33.958 86.6222 34.6696 87.917 35.3433C87.6801 34.0121 87.5341 32.8568 87.2558 31.7312C86.9776 30.6057 87.2972 29.7344 88.1897 28.9769C89.0382 28.2544 89.8095 27.4427 90.7847 26.5093C89.3439 26.2847 88.1842 26.0277 87.0134 25.9384C85.9115 25.8545 85.2587 25.3485 84.8317 24.3826C84.3634 23.3193 83.8069 22.2938 83.1788 21.014C82.5397 22.2884 81.9805 23.3058 81.5094 24.361C81.0852 25.3215 80.4599 25.8572 79.347 25.9411C78.1487 26.0195 76.9834 26.2739 75.5234 26.5012Z" fill="white"/>
<path d="M48.0341 72.7708C44.8121 72.7831 41.6588 71.8563 38.9733 70.1076C36.2878 68.359 34.1909 65.8671 32.9479 62.9474C31.7049 60.0277 31.3718 56.8114 31.9907 53.7057C32.6096 50.6 34.1527 47.7444 36.4246 45.5004C38.6966 43.2564 41.5953 41.7249 44.7538 41.0997C47.9124 40.4744 51.1888 40.7836 54.1683 41.9881C57.1479 43.1926 59.6966 45.2382 61.492 47.8661C63.2873 50.4939 64.2486 53.5859 64.254 56.7505C64.2646 58.8497 63.8529 60.9303 63.0426 62.8728C62.2323 64.8153 61.0394 66.5815 59.5323 68.07C58.0253 69.5585 56.2337 70.74 54.2606 71.5467C52.2874 72.3534 50.1714 72.7694 48.0341 72.7708ZM48.0341 69.5024C50.5953 69.4948 53.0967 68.7414 55.2218 67.3374C57.347 65.9333 59.0004 63.9418 59.973 61.6146C60.9455 59.2875 61.1935 56.7293 60.6856 54.2637C60.1776 51.7981 58.9365 49.5358 57.1193 47.7631C55.3021 45.9904 52.9905 44.7869 50.4768 44.3048C47.963 43.8227 45.3602 44.0837 42.9975 45.0547C40.6349 46.0258 38.6185 47.6633 37.2035 49.7601C35.7885 51.8569 35.0385 54.3188 35.0483 56.8344C35.0475 58.5062 35.3838 60.1616 36.0377 61.705C36.6916 63.2485 37.6503 64.6495 38.8583 65.8273C40.0664 67.005 41.4999 67.9361 43.0762 68.5669C44.6525 69.1976 46.3403 69.5156 48.0424 69.5024H48.0341Z" fill="white"/>
<path d="M45.3837 60.0272C47.8906 57.5461 50.2266 55.1922 52.626 52.9004C53.0943 52.4314 53.7112 52.1327 54.3752 52.0536C54.816 52.0373 55.6011 52.5947 55.6644 53.0006C55.7122 53.3362 55.6918 53.6779 55.6043 54.0058C55.5168 54.3336 55.364 54.6412 55.1548 54.9108C53.1191 57.051 50.9731 59.0856 48.863 61.1582C48.0531 61.9563 47.2597 62.7816 46.425 63.5446C45.2433 64.6431 44.2212 64.5213 43.3948 63.1739C42.4114 61.5505 41.4665 59.8946 40.5079 58.2577C39.9569 57.3188 39.8908 56.4368 40.91 55.7847C41.764 55.2436 42.7557 55.6305 43.4058 56.7046C44.056 57.7788 44.6537 58.7988 45.3837 60.0272Z" fill="white"/>
</svg>
