<svg width="95" height="91" viewBox="0 0 95 91" fill="none" xmlns="http://www.w3.org/2000/svg">
<path d="M49.8917 47.0957C49.9569 44.6754 50.4009 42.436 48.5039 40.546C47.6936 39.732 47.1441 38.5717 46.7032 37.477C44.8404 32.8735 42.8162 28.3199 41.3632 23.5854C39.429 17.2229 41.2918 11.5933 45.9705 7.07089C51.1988 2.03387 57.3802 -0.885412 64.819 0.240509C70.6775 1.12939 75.3128 4.53523 77.8586 9.63462C80.4302 14.8178 81.0414 20.7626 79.5786 26.3644C79.5337 26.6732 79.4282 26.9701 79.2682 27.2377C77.0514 30.0946 76.6665 33.7343 75.139 36.8813C74.518 38.185 73.9468 39.6228 72.9657 40.624C71.1991 42.4735 71.196 44.5694 71.463 46.8618C73.8474 47.1331 76.2815 47.2111 78.6224 47.7163C85.698 49.2446 91.246 52.8937 93.9781 59.9143C94.6143 61.6717 94.939 63.5274 94.9375 65.3973C95.0399 73.1946 94.984 80.9918 94.9778 88.7891C94.9778 90.7009 94.6953 90.9972 92.8542 90.9972C71.3802 90.9972 49.9052 90.9972 28.4291 90.9972C26.6222 90.9972 26.38 90.7477 26.38 88.9045C26.38 81.4191 26.4763 73.9338 26.349 66.4484C26.2155 58.4828 30.1894 53.2305 36.8862 49.6906C40.3386 47.8692 44.0953 47.1955 47.9668 47.0926C48.5722 47.0738 49.1807 47.0957 49.8917 47.0957ZM75.0396 26.6856C74.7012 24.624 74.4652 22.2381 73.8691 19.9426C73.4873 18.4829 72.6273 17.1356 71.8697 15.7976C71.4444 15.0646 70.8172 14.9274 69.92 15.4857C68.3393 16.4605 66.6772 17.2953 64.9525 17.9808C59.7242 20.0486 54.2321 20.9843 48.6747 21.5925C47.8768 21.6798 47.1472 21.633 46.9237 22.84C45.7811 29.0373 47.3086 34.5889 50.8573 39.6197C55.3249 45.9573 62.8165 47.1456 68.1814 42.3331C72.6987 38.2723 74.7136 33.0139 75.0396 26.6763V26.6856ZM73.419 64.4398C73.9422 64.924 74.4948 65.375 75.0738 65.7903C76.3405 66.5856 76.5454 67.5494 76.0052 68.956C74.7881 72.209 73.7108 75.5057 72.59 78.7992C71.4941 81.9743 70.4167 85.1493 69.2835 88.3992H92.4817C92.4817 80.2682 92.5903 72.2683 92.4289 64.2745C92.3637 60.9342 90.8362 58.0368 88.427 55.6758C87.9644 59.066 87.4956 62.3315 87.1075 65.6063C87.064 65.9556 87.4179 66.4203 87.6912 66.726C89.1907 68.3634 89.5198 70.4344 88.5015 72.1591C87.4831 73.8839 85.6048 74.6823 83.565 74.1895C82.6826 73.9623 81.8965 73.4556 81.3233 72.7444C80.7501 72.0332 80.4203 71.1553 80.3828 70.241C80.2834 68.0266 81.4166 66.517 83.6302 65.6812C83.8872 65.5702 84.1172 65.4045 84.3042 65.1956C84.4913 64.9866 84.631 64.7395 84.7138 64.471C85.0987 62.2878 85.5303 60.0609 85.5924 57.8434C85.7476 52.3541 85.9805 52.9997 81.103 50.9818C78.561 49.9172 75.7978 49.4952 73.0557 49.753C74.3814 51.5713 75.4929 53.1838 76.7068 54.7245C77.4768 55.6976 77.6382 56.5366 76.9738 57.6718C75.7537 59.8208 74.6515 62.0664 73.419 64.4305V64.4398ZM28.8513 88.4553H52.0029C51.7545 87.66 51.5589 86.9676 51.323 86.2877C49.3236 80.499 47.3428 74.7073 45.2968 68.9342C44.8311 67.6242 44.9336 66.648 46.1661 65.8589C46.775 65.4211 47.3557 64.9451 47.9047 64.4336C46.8585 62.4094 46.0637 60.4601 44.9056 58.7572C43.6296 56.8859 43.8252 55.4138 45.2844 53.7951C46.3586 52.6005 47.2124 51.2033 48.2711 49.7405C44.828 49.4972 40.2517 50.5171 37.6283 52.1233C37.0908 52.4769 36.6975 53.0126 36.5199 53.6329C35.6977 57.0924 35.8449 60.713 36.9452 64.0937C37.2557 65.0293 37.7152 65.4753 38.7708 65.6188C41.8754 66.043 43.9121 67.8987 44.8404 70.9209C45.8432 74.1646 44.5144 76.903 41.6488 77.5829C40.7826 77.7856 39.786 78.0538 39.4755 76.8343C39.1651 75.6149 40.0965 75.2749 41.0279 75.1439C42.2139 74.9817 42.5181 74.2675 42.5802 73.2071C42.7634 69.4114 39.1092 66.9225 35.6909 68.5287C34.7009 69.0056 33.9095 69.8172 33.4553 70.8214C33.0012 71.8256 32.9134 72.9583 33.2072 74.0211C33.44 74.8351 33.8778 75.8456 34.5267 76.2043C35.1756 76.563 36.2343 76.1482 37.0942 76.2417C37.5862 76.328 38.0288 76.5948 38.3361 76.9903C38.5069 77.2211 38.3796 78.0414 38.2306 78.0881C36.8707 78.4998 35.2687 79.4074 34.1324 79.0238C31.6486 78.163 30.1646 74.5232 30.6086 71.8503C30.7808 70.6725 31.227 69.552 31.911 68.5798C32.595 67.6077 33.4975 66.8112 34.5453 66.255C34.1075 62.3845 33.707 58.8134 33.3034 55.2422C33.5487 55.2142 33.4338 55.1986 33.3531 55.2422C33.2221 55.3241 33.103 55.4238 32.9992 55.5385C30.3881 58.2052 28.8731 61.3615 28.8731 65.1478C28.8544 71.5416 28.8731 77.9353 28.8731 84.3322L28.8513 88.4553ZM77.3619 24.1562L77.5979 24.1936C77.5979 22.2849 77.7189 20.3667 77.5761 18.4705C77.1663 12.9968 75.2973 8.30285 70.4354 5.17148C67.4549 3.25024 64.285 2.16175 60.755 2.5329C55.5143 3.08494 51.0684 5.40228 47.3862 9.14184C43.8749 12.713 42.515 17.017 43.465 21.9917C43.6223 22.6191 43.8161 23.2367 44.0456 23.8412C44.3897 23.0873 44.5998 22.2788 44.6666 21.4521C44.7566 19.9145 45.5172 19.3843 47.0323 19.2159C50.4793 18.8748 53.9062 18.3543 57.2995 17.6564C61.646 16.7208 65.915 15.4732 69.594 12.7223C70.0721 12.3668 71.1091 12.4104 71.73 12.6755C74.0834 13.633 75.2352 15.7009 75.9275 17.9777C76.5267 20.0018 76.89 22.0977 77.3619 24.1562ZM50.2363 51.328C49.0876 52.8875 48.0631 54.1693 47.1751 55.5572C47.0316 55.8232 46.9462 56.1169 46.9248 56.4186C46.9034 56.7204 46.9464 57.0232 47.0509 57.3069C48.0662 59.459 49.1901 61.5642 50.3357 63.6508C50.879 64.6395 50.8045 65.4067 49.8824 66.0773C49.5331 66.3848 49.1683 66.6742 48.7896 66.9443C47.7309 67.5681 47.6719 68.3447 48.0972 69.4176C48.7678 71.1018 49.3111 72.8484 49.9041 74.5482C51.5093 79.1891 53.1113 83.83 54.7009 88.421H59.066C56.1259 76.0671 53.2137 63.841 50.2363 51.328ZM62.239 88.5208C63.2263 88.5208 64.0149 88.4117 64.76 88.5458C66.2565 88.8109 66.8153 88.0655 67.2438 86.7649C69.0476 81.3567 70.929 75.9735 72.8011 70.5872C73.7015 67.9954 73.7481 67.9673 71.5593 66.202C70.5813 65.4129 70.3702 64.6956 71.0221 63.5572C72.205 61.4863 73.2668 59.3498 74.3286 57.2134C74.5056 56.8609 74.6391 56.2528 74.4497 55.9814C73.4531 54.4906 72.3572 53.0652 71.078 51.3031C68.0975 63.9034 65.1978 76.1326 62.239 88.5208ZM60.5408 83.8986L60.7798 83.8799C63.0566 74.2987 65.3334 64.7174 67.6101 55.1362C65.6386 57.5627 63.9838 60.1264 62.3073 62.6652C60.9599 64.7143 60.3172 64.7112 59.0039 62.6901C57.3171 60.0973 55.6271 57.5086 53.934 54.9241L53.6608 55.0582C55.9707 64.6602 58.264 74.2737 60.5408 83.8986ZM68.7682 45.1838C63.3195 48.7206 57.9297 48.5896 52.6052 45.0965C52.4137 45.9134 52.4025 46.7625 52.5725 47.5842C52.7426 48.4059 53.0896 49.1802 53.5894 49.8528C55.9924 53.3491 58.2464 56.9451 60.6587 60.6442C63.1735 56.7642 65.5269 53.0528 67.992 49.4161C68.8923 48.1062 69.0227 46.7994 68.7744 45.1682L68.7682 45.1838ZM82.8386 70.1599C83.0248 71.1735 83.6458 71.9127 84.779 71.8597C85.0274 71.8653 85.2743 71.8179 85.5031 71.7206C85.732 71.6233 85.9377 71.4784 86.1067 71.2953C86.2757 71.1123 86.4042 70.8953 86.4836 70.6587C86.5629 70.4221 86.5915 70.1713 86.5673 69.9229C86.5362 68.7595 85.7632 68.1233 84.6393 68.1482C83.5154 68.1732 82.8944 68.8905 82.8448 70.1443L82.8386 70.1599Z" fill="white"/>
<path d="M30.7363 42.7603C30.9505 45.0963 31.1865 47.1579 31.3076 49.2257C31.3634 50.1396 31.9285 51.4651 30.6556 51.7864C30.0346 51.9454 29.007 51.2312 28.3892 50.6667C25.9054 48.393 23.549 45.9883 21.0559 43.7178C20.4141 43.1665 19.6081 42.845 18.7647 42.8039C14.2691 42.7166 9.7611 42.7696 5.26864 42.7572C1.69205 42.7509 0 41.0854 0 37.533C0 31.8192 0 26.1043 0 20.3884C0 16.9951 1.78829 15.2329 5.19723 15.2329C14.5589 15.2329 23.9195 15.2329 33.279 15.2329C36.6476 15.2329 38.4669 17.045 38.4701 20.4072C38.4701 26.121 38.4701 31.8389 38.4701 37.5611C38.4701 41.0199 36.7625 42.7416 33.3411 42.7696C32.5339 42.7665 31.7174 42.7603 30.7363 42.7603ZM28.6065 47.4386C28.4637 45.6827 28.3457 44.3665 28.2526 43.0472C28.0663 40.3712 28.1563 40.2776 30.758 40.2745C31.587 40.2745 32.4128 40.2745 33.2418 40.2745C35.3436 40.2496 35.9584 39.6663 35.9646 37.6079C35.977 31.8878 35.977 26.1698 35.9646 20.4539C35.9646 18.383 35.3436 17.7686 33.2666 17.7686C23.9008 17.7686 14.534 17.7686 5.16618 17.7686C3.12641 17.7779 2.48374 18.4235 2.48374 20.482C2.48374 26.1501 2.48374 31.8171 2.48374 37.4831C2.48374 39.6383 3.10468 40.2652 5.25001 40.2714C9.75179 40.2714 14.2536 40.3431 18.7554 40.2433C20.4319 40.2059 21.6955 40.627 22.8597 41.8776C24.5766 43.7178 26.4705 45.3895 28.6065 47.4417V47.4386Z" fill="white"/>
<path d="M23.1177 35.7647C22.5713 38.6247 22.5713 38.6247 19.5443 38.6247H18.9388C15.859 38.6247 15.859 38.6247 15.3623 35.7678C12.6053 36.7035 12.6053 36.7035 11.0157 33.9433L10.6338 33.2665C9.21189 30.7713 9.21189 30.7713 11.4969 29.1308C11.4814 29.0404 11.4969 28.9 11.4504 28.8595C9.24915 27.2096 9.24915 27.2096 10.6494 24.73C10.7766 24.5055 10.9008 24.2778 11.0312 24.0532C12.6115 21.3336 12.6115 21.3336 15.4678 22.2879C15.4895 21.8108 15.356 21.2587 15.5641 20.9156C15.9149 20.3386 16.4303 19.534 16.9612 19.4622C18.4328 19.2595 19.9479 19.3655 21.4443 19.3936C22.4285 19.4123 22.9625 19.9301 22.9501 20.9531C22.9501 21.3959 23.0029 21.8419 23.0339 22.3191C25.884 21.2244 25.884 21.2244 27.4022 23.9222C27.4767 24.0595 27.5481 24.1967 27.6257 24.3339C29.1781 27.0942 29.1781 27.0942 26.9862 29.0123C29.2246 30.8836 29.2246 30.8836 27.7002 33.5347C27.6226 33.6688 27.5543 33.8091 27.4798 33.9464C25.9057 36.7191 25.9057 36.7191 23.1177 35.7647ZM24.7912 33.6095L25.9461 31.5292C25.2724 31.13 24.7042 30.7963 24.1268 30.4501C22.4409 29.4146 22.4595 28.5788 24.1857 27.5308L25.9523 26.4641L24.757 24.4712L23.6859 25.0482C23.3226 25.2478 22.9718 25.4723 22.6024 25.6532C21.286 26.277 20.5315 25.8372 20.4694 24.3527C20.4384 23.548 20.4694 22.7402 20.4694 21.9698H18.023C18.023 22.815 18.0447 23.5293 18.023 24.256C17.9671 25.8528 17.2189 26.3113 15.8217 25.6064C15.1418 25.2602 14.4805 24.8797 13.7106 24.4618L12.5215 26.461C13.3722 26.9881 14.139 27.3967 14.8376 27.9051C15.8031 28.6006 15.7907 29.4645 14.8096 30.1569C14.1018 30.6559 13.3411 31.0926 12.5277 31.5791L13.7075 33.5939C14.5054 33.1448 15.207 32.7175 15.9335 32.3464C17.1505 31.7226 17.936 32.1811 18.0168 33.5596C18.0633 34.3705 18.0168 35.1877 18.0168 36.0547H20.457C20.457 35.3156 20.457 34.6512 20.457 33.99C20.4881 32.0906 21.2425 31.6322 22.8538 32.5273L24.7912 33.6095Z" fill="white"/>
</svg>
