<svg width="30" height="43" viewBox="0 0 30 43" fill="none" xmlns="http://www.w3.org/2000/svg">
<path d="M19.9834 26.5087C20.9144 25.789 21.7132 25.1447 22.5307 24.5457C25.6323 22.2724 29.3142 24.5877 29.9121 29.2619C30.2628 32.0101 29.5651 34.3892 27.804 35.869C25.1293 38.1189 22.3822 40.2312 19.6077 42.2445C17.5096 43.7897 14.9285 42.8804 13.4807 40.2849C13.3808 40.0807 13.2418 39.9165 13.0785 39.8093C12.9151 39.7022 12.7333 39.6561 12.5521 39.6758C9.55663 39.6926 6.56116 39.6954 3.5657 39.6842C1.2492 39.6792 0.0123247 38.0299 0.0110766 34.9395C0.0110766 29.8794 0.0248058 24.8192 0.00109172 19.7591C-0.0208454 18.4957 0.28842 17.2621 0.87477 16.2743C1.74845 14.7493 2.63461 13.2242 3.43714 11.6286C3.67678 11.1538 3.67179 10.4458 3.75042 9.83843C3.84028 9.15222 3.63559 8.72607 3.20499 8.263C2.84928 7.88047 2.58967 7.11205 2.54225 6.47954C2.44365 5.15242 2.49107 3.79511 2.51853 2.4529C2.54599 1.11068 3.28487 0.0352331 4.29584 0.0251665C8.08012 -0.00838884 11.8661 -0.00838884 15.6537 0.0251665C16.6883 0.0251665 17.4385 1.0788 17.4784 2.49987C17.5158 3.81189 17.5034 5.12893 17.4784 6.44095C17.4634 7.30332 17.1826 8.0365 16.6222 8.46601C16.2902 8.71936 16.2652 9.0331 16.2278 9.47267C16.1267 10.6639 16.4163 11.6085 16.9841 12.5195C17.7567 13.7594 18.4295 15.1116 19.1696 16.3918C19.7272 17.3432 20.0175 18.5283 19.9896 19.7389C19.9709 21.9385 19.9834 24.1431 19.9834 26.5087ZM1.3166 20.6852V32.9631C5.17326 32.9631 8.97501 32.9631 12.778 32.9463C12.9428 32.9463 13.1262 32.7248 13.271 32.5587C13.955 31.7652 14.579 30.8558 15.3192 30.173C16.2752 29.2921 17.3249 28.5975 18.3221 27.7939C18.4919 27.6563 18.7103 27.3744 18.714 27.1547C18.7427 25.0122 18.7315 22.8696 18.7315 20.6852H1.3166ZM1.18305 18.9101H18.7814C18.563 18.3648 18.4245 17.9035 18.2123 17.5125C17.3711 15.9556 16.4911 14.4288 15.6487 12.8718C15.552 12.6652 15.4153 12.4979 15.2533 12.3879C15.0912 12.278 14.9099 12.2295 14.7288 12.2477C13.0027 12.2829 11.2765 12.2695 9.55039 12.2561C8.95504 12.2561 8.5519 11.6622 8.82149 11.1404C8.97127 10.8434 9.35444 10.6152 9.63651 10.6052C11.1954 10.5548 12.7568 10.5817 14.3157 10.5817H14.9472V8.93914H5.00602C4.98719 9.39011 4.98719 9.84214 5.00602 10.2931C5.09339 11.2779 4.83503 12.0581 4.38196 12.8198C3.4958 14.3265 2.64709 15.8851 1.79962 17.4488C1.57371 17.8565 1.41895 18.3397 1.18305 18.9101ZM18.9487 29.2485C17.6731 30.2552 16.4163 31.1394 15.2505 32.198C13.6829 33.6225 13.2535 36.478 14.1759 38.696C15.0982 40.914 17.094 41.9358 18.7939 40.8972C20.1269 40.0819 21.37 38.9997 22.708 37.9947L18.9487 29.2485ZM9.98598 7.2144C11.772 7.2144 13.5581 7.2144 15.3441 7.2144C16.0056 7.2144 16.229 6.93924 16.239 6.09868C16.2515 4.95445 16.2515 3.80965 16.239 2.66429C16.2315 2.0301 15.9757 1.68616 15.4902 1.68616H4.51925C4.00878 1.68616 3.75541 2.02171 3.75791 2.71966C3.75791 3.80853 3.75791 4.90076 3.75791 5.98627C3.75791 6.9728 3.94138 7.2144 4.68151 7.21608C6.44883 7.22279 8.21699 7.22223 9.98598 7.2144ZM23.7851 37.1424C24.9546 36.218 26.1153 35.3992 27.1949 34.4177C28.7339 33.0185 29.1807 30.2065 28.302 28.0019C27.4233 25.7973 25.4314 24.6917 23.7252 25.69C22.4596 26.4299 21.2864 27.455 20.0245 28.3861C21.2989 31.3524 22.5307 34.2264 23.7851 37.1424ZM1.3191 34.6929C1.13812 36.827 1.86452 37.9846 3.39346 37.9947C6.28284 38.0115 9.17221 37.9947 12.0628 37.9947C12.2159 37.9863 12.3685 37.965 12.5196 37.931V34.6929H1.3191Z" fill="white"/>
</svg>
