<svg width="100" height="71" viewBox="0 0 100 71" fill="none" xmlns="http://www.w3.org/2000/svg">
<path d="M29.5973 29.419C30.4531 29.769 30.9493 30.1268 31.4612 30.1544C33.0243 30.233 34.5873 30.1976 36.1504 30.178C39.6125 30.1347 41.5898 28.2116 41.6211 24.6722C41.6719 18.4508 41.5898 12.2254 41.6601 6.00004C41.707 1.77244 45.4154 -0.937151 49.2722 0.301633C51.7692 1.08816 53.258 3.27471 53.2853 6.38937C53.3283 11.3052 53.2853 16.221 53.2853 21.1329C53.2853 22.2458 53.2853 23.3587 53.2853 24.4756C53.34 28.2863 55.1805 30.1426 58.9201 30.1662C60.3503 30.1662 61.7883 30.2173 63.2185 30.1426C63.7304 30.115 64.2267 29.7926 64.7308 29.6038C64.4423 29.1565 64.0968 28.7493 63.703 28.3925C57.1617 23.8739 56.3919 15.053 62.1283 9.78718C62.5958 9.32682 63.1213 8.93017 63.6913 8.60738C65.5787 7.63995 67.2785 6.58207 68.7361 4.88317C70.5609 2.72021 73.7652 2.94437 76.1957 4.72193C76.8375 5.15796 77.6173 5.33873 78.384 5.22924C81.0842 4.67474 83.2294 5.50846 85.0778 7.45512C85.4685 7.88378 86.0429 8.40289 86.5666 8.45008C93.2877 9.04784 95.8823 12.4181 94.5147 18.8795C98.7701 22.8121 99.2742 25.0144 96.9569 29.3757C101.009 34.0437 101.013 37.2017 96.9765 40.9613C99.1257 46.2074 98.6099 48.4766 94.5889 51.4575C95.8315 56.8492 93.7839 60.7976 88.4266 62.1229C88.3602 62.4453 88.282 62.8111 88.2078 63.1807C87.4028 67.1448 84.0461 69.3628 80.0877 68.6864C79.2645 68.5859 78.4328 68.7854 77.7431 69.2488C75.0508 71.1797 71.702 70.7865 69.502 68.2499C68.9307 67.5963 68.1909 67.1145 67.3645 66.8578C62.5737 65.5443 59.5023 62.5318 58.5528 57.6436C57.5681 52.5704 59.4515 48.5513 63.5936 45.5389C64.043 45.2164 64.3244 44.654 64.6839 44.2057C64.1133 44.0091 63.5467 43.6827 62.9684 43.6473C61.5421 43.5686 60.1041 43.5883 58.67 43.6473C55.286 43.7495 53.3517 45.6608 53.3049 49.0625C53.2462 53.5182 53.3049 57.9739 53.2736 62.4335C53.2384 65.7566 51.4565 68.1319 48.7095 68.6943C45.0168 69.4454 41.7383 66.8932 41.6758 63.047C41.582 58.6582 41.6562 54.2693 41.6445 49.8766C41.6328 45.4838 39.7923 43.6591 35.4626 43.6433C34.1614 43.6433 32.8563 43.5843 31.555 43.6709C31.0236 43.7063 30.5078 44.0641 29.6754 44.3787C30.2577 44.8546 30.457 45.067 30.7266 45.2321C35.9042 48.6024 37.9088 54.2772 35.8065 59.6728C33.755 65.0015 28.3586 67.9746 22.3447 66.9875C10.7391 65.0487 4.34622 57.6554 1.3608 46.6636C-1.0971 37.6185 -0.202254 28.8448 3.85777 20.4918C7.81228 12.3552 14.4162 7.73434 23.4428 6.82589C29.1479 6.25173 34.0676 9.31919 35.9042 14.5142C37.7877 19.839 35.8573 25.2779 30.9415 28.5105C30.6289 28.7111 30.3202 28.9313 29.5973 29.419ZM66.4618 25.9582C68.2828 25.0655 69.7325 24.1846 71.2995 23.6812C71.784 23.5278 72.8625 24.2633 73.1556 24.861C73.3471 25.2543 72.7648 26.5285 72.2842 26.6779C68.7673 27.7987 67.595 30.642 66.919 33.7999C65.6139 39.7775 67.4739 44.1703 72.2959 47.1434C72.7961 47.4501 73.2376 48.5277 73.0774 49.0468C72.9172 49.5659 71.9052 50.2266 71.362 50.1283C70.2522 49.9316 68.9822 49.5305 68.2085 48.7715C66.8409 47.4226 65.8288 47.926 64.6917 48.9013C62.0462 51.2215 61.0029 54.1199 61.9212 57.5531C62.8629 61.0492 65.2192 63.0942 68.7947 63.6605C69.9279 63.8375 71.0337 63.81 71.7488 65.1392C72.1943 65.9768 73.2845 66.9639 74.0934 66.9679C74.9023 66.9718 75.8987 65.9729 76.4927 65.1746C77.3094 64.0852 78.0948 63.6291 79.228 64.4942C80.5488 65.4931 81.9126 65.8549 83.3701 64.8875C84.8277 63.9201 85.0856 62.5633 84.7261 60.9234C84.4095 59.4722 85.0387 58.5638 86.5705 58.6818C88.5243 58.8391 90.0873 58.2885 91.0291 56.5464C92.0411 54.7137 91.5449 53.0738 90.3257 51.4654C89.3097 50.1243 89.8607 48.8777 91.5488 48.6732C93.3228 48.453 94.5264 47.6586 94.8273 45.8771C95.1282 44.0956 94.2333 42.9551 92.6664 42.1096C92.0607 41.7871 91.3026 40.7371 91.4394 40.2613C91.6386 39.5888 92.5648 39.0815 93.2447 38.6135C93.5378 38.4129 94.0262 38.5112 94.3818 38.3854C95.9449 37.8545 96.7264 36.6826 96.656 35.1016C96.6655 34.3686 96.4131 33.6565 95.9448 33.0949C95.4765 32.5334 94.8234 32.1598 94.1044 32.042C93.6081 31.9319 92.9985 32.1364 92.5726 31.924C91.9474 31.6094 91.0994 31.1375 90.9861 30.5712C90.8728 30.0049 91.455 29.2263 91.8653 28.6364C92.049 28.3689 92.5765 28.3571 92.9204 28.1802C94.2724 27.4841 94.9914 26.3594 94.8195 24.8335C94.6397 23.2368 93.6784 22.2458 92.0841 21.8919C89.466 21.298 89.2628 20.7357 90.7829 18.3525C91.8419 16.689 91.877 14.9861 90.6657 13.417C89.5246 11.9383 87.9538 11.3091 86.1641 12.0209C84.3744 12.7327 83.5811 12.1979 82.9286 10.4675C82.147 8.41862 79.9041 7.77759 78.0597 9.03211C76.4146 10.1529 75.465 9.94448 74.5193 8.14726C74.1559 7.46298 72.9797 6.85736 72.1748 6.87309C71.4792 6.87309 70.7798 7.78546 70.1155 8.33603C69.3339 8.99278 68.6892 10.0192 67.7982 10.322C64.2814 11.5018 61.886 14.2075 61.6164 17.6367C61.3663 21.4239 63.1716 24.4363 66.4618 25.9582ZM23.728 10.09C17.2609 10.4833 11.4737 13.7041 7.9217 20.1104C6.11185 23.4316 4.81902 27.0127 4.08832 30.7285C2.22047 40.0843 3.88121 48.9249 9.80126 56.5188C13.9121 61.7886 19.5703 64.2622 26.3071 63.5976C29.652 63.2594 32.4264 60.4161 33.079 57.1127C33.4074 55.4599 33.2393 53.7462 32.5963 52.19C31.9533 50.6337 30.8643 49.3054 29.4683 48.3743C28.6008 47.8041 27.9717 47.7097 27.0769 48.4766C26.1948 49.2436 25.1408 49.7835 24.0055 50.0496C23.3451 50.1873 22.165 49.6917 21.8328 49.1215C21.2545 48.1226 21.868 47.2732 23.0051 46.935C24.9589 46.3529 26.1312 44.8979 26.9479 43.1085C28.5175 39.6023 28.6951 35.6246 27.4442 31.9909C26.6861 29.6313 25.4357 27.665 22.8332 26.7841C22.2783 26.5992 22.0517 25.4155 21.6609 24.6958C22.3994 24.3616 23.224 23.6498 23.8687 23.7835C25.0179 24.0201 26.0844 24.5588 26.9596 25.3447C27.9131 26.2335 28.5657 26.0605 29.484 25.4509C30.9599 24.4661 32.0872 23.0355 32.7038 21.3648C33.3203 19.6942 33.3942 17.8697 32.9149 16.1541C31.8481 12.4181 28.6126 10.0743 23.728 10.09ZM31.5863 40.3124C33.204 40.3124 34.6889 40.3124 36.1777 40.3124C41.4335 40.3674 44.8566 43.7613 44.9035 49.0193C44.9386 53.0778 44.9035 57.1362 44.9035 61.2105C44.9035 64.156 45.7162 65.4971 47.4708 65.4617C49.2253 65.4263 49.9248 64.16 49.9248 61.3206C49.9248 57.4548 49.9248 53.5929 49.9248 49.7311C49.9248 43.6001 53.2033 40.336 59.3539 40.3202H63.3514V33.6347C62.1009 33.6347 60.8114 33.6347 59.5258 33.6347C53.2033 33.6347 49.9248 30.3156 49.9248 23.9447C49.9248 18.0457 49.9248 12.1468 49.9248 6.26746C49.9248 4.47417 48.8814 3.34157 47.3965 3.43595C45.7397 3.5382 45.0168 4.59608 44.9269 6.18881C44.8996 6.64499 44.9269 7.10511 44.9269 7.56523C44.9269 13.3266 44.9543 19.0879 44.9269 24.8453C44.8956 30.0757 41.4491 33.5404 36.2363 33.6505C34.6733 33.6819 33.1415 33.6505 31.6097 33.6505V40.336L31.5863 40.3124Z" fill="#546DE5"/>
<path d="M71.6394 16.5204C71.701 15.5294 72.0533 14.5791 72.6518 13.7897C73.2504 13.0003 74.0681 12.4073 75.0016 12.0859C75.9351 11.7644 76.9424 11.729 77.896 11.9839C78.8495 12.2388 79.7065 12.7728 80.3584 13.5181C81.0103 14.2634 81.4279 15.1866 81.5582 16.1709C81.6885 17.1551 81.5258 18.1562 81.0906 19.0473C80.6553 19.9384 79.9672 20.6796 79.1132 21.1769C78.2593 21.6743 77.2779 21.9055 76.2933 21.8413C74.9813 21.7404 73.7604 21.1276 72.8909 20.1336C72.0215 19.1396 71.5723 17.843 71.6394 16.5204ZM78.9036 16.7288C77.8251 16.0052 77.1726 15.2226 76.6177 15.2895C76.0628 15.3564 75.5196 16.2294 74.9765 16.7485C75.5509 17.2991 76.0667 18.1682 76.7232 18.298C77.2038 18.3884 77.872 17.5075 78.9036 16.721V16.7288Z" fill="#546DE5"/>
<path d="M89.9113 28.6173C89.8877 29.6052 89.5736 30.5638 89.0085 31.372C88.4434 32.1801 87.6528 32.8014 86.7367 33.1572C85.8207 33.5129 84.8204 33.5872 83.8623 33.3707C82.9043 33.1541 82.0317 32.6564 81.3548 31.9405C80.678 31.2246 80.2273 30.3227 80.0599 29.349C79.8926 28.3753 80.016 27.3735 80.4145 26.4704C80.8131 25.5673 81.4689 24.8034 82.2989 24.2755C83.129 23.7477 84.0959 23.4794 85.0775 23.5048C86.388 23.55 87.6286 24.1109 88.5325 25.0669C89.4364 26.0229 89.9315 27.2978 89.9113 28.6173ZM87.2736 28.4836C86.1951 27.7639 85.5386 26.9774 84.9642 27.0363C84.3898 27.0953 83.8622 27.9723 83.3152 28.4914C83.8896 29.0459 84.4093 29.9308 85.0658 30.0645C85.5738 30.1392 86.242 29.2583 87.2736 28.4836Z" fill="#546DE5"/>
<path d="M76.6138 43.5967C75.6321 43.5912 74.6741 43.2926 73.8611 42.7386C73.0482 42.1846 72.417 41.4003 72.0474 40.485C71.6778 39.5696 71.5865 38.5645 71.7851 37.5969C71.9837 36.6293 72.4632 35.7428 73.1628 35.0497C73.8625 34.3566 74.7508 33.8881 75.7153 33.7035C76.6797 33.519 77.6769 33.6267 78.5805 34.0131C79.484 34.3995 80.2533 35.0471 80.7908 35.8738C81.3284 36.7006 81.61 37.6693 81.5999 38.6573C81.5979 39.312 81.467 39.9599 81.2147 40.5634C80.9625 41.1669 80.5939 41.7141 80.1302 42.1733C79.6666 42.6326 79.1171 42.9949 78.5136 43.2392C77.91 43.4835 77.2643 43.605 76.6138 43.5967ZM78.8763 38.5433C77.8369 37.8118 77.1804 36.9702 76.6255 37.0567C76.0706 37.1432 75.5196 38.0163 74.9726 38.5511C75.547 39.1253 76.0511 40.0219 76.7154 40.1635C77.1843 40.2618 77.8681 39.3298 78.8763 38.5433Z" fill="#546DE5"/>
<path d="M66.5136 16.1274C67.3186 17.1499 68.2369 17.8224 68.1509 18.3219C68.0337 18.9943 67.1467 19.5292 66.5879 20.1269C66.0486 19.5803 65.1381 19.0809 65.0678 18.4792C64.9975 17.8775 65.7985 17.2168 66.5136 16.1274Z" fill="#546DE5"/>
<path d="M74.9957 32.5381C74.2142 31.4802 73.3467 30.7959 73.4327 30.3122C73.5694 29.6515 74.4408 29.1324 74.9957 28.5701C75.5076 29.1206 76.3712 29.6358 76.4376 30.2336C76.5041 30.8313 75.7304 31.4645 74.9957 32.5381Z" fill="#546DE5"/>
<path d="M86.6594 42.6448C85.8779 41.5712 85.0964 40.9459 85.1237 40.3718C85.1511 39.7976 86.0069 39.2352 86.4992 38.6729C87.0776 39.2195 87.9841 39.6875 88.1365 40.3364C88.2498 40.8279 87.4019 41.5476 86.6594 42.6448Z" fill="#546DE5"/>
<path d="M83.9379 46.8569C82.9024 47.6985 82.2537 48.607 81.7692 48.5244C81.1166 48.4103 80.5969 47.5412 80.0068 46.9985C80.5265 46.4597 80.9994 45.5749 81.5699 45.4923C82.1404 45.4097 82.8399 46.1648 83.9379 46.8569Z" fill="#546DE5"/>
<path d="M24.2651 13.4333C24.5621 13.6772 25.7969 14.1806 25.9571 14.9199C26.2971 16.4694 24.9919 16.6935 23.7102 16.8233C18.3294 17.3699 14.8673 20.5318 12.6048 25.2588C12.2687 25.9628 12.1593 26.8633 11.6513 27.3746C11.1433 27.8858 10.2211 28.1061 9.48648 28.4482C9.18168 27.7364 8.45877 26.8751 8.63461 26.3364C10.7252 19.7334 15.7934 14.0429 24.2651 13.4333Z" fill="#546DE5"/>
</svg>
