<svg width="27" height="28" viewBox="0 0 27 28" fill="none" xmlns="http://www.w3.org/2000/svg">
<g clip-path="url(#clip0_233_1196)">
<path d="M26.4028 18.7716C27.1968 17.5188 27.1827 16.2759 26.4548 15.0034C26.3552 14.8205 26.3219 14.6083 26.3604 14.4033C26.8269 12.4409 25.9645 10.8914 24.037 10.299C22.8611 9.93758 21.6505 9.88392 20.4389 10.0153C19.3325 10.1347 18.2315 10.3121 17.0762 10.4709C17.0777 10.22 17.0981 9.96963 17.137 9.72185C17.3062 8.97611 17.5253 8.2424 17.6794 7.49447C17.9267 6.32274 18.2825 5.15101 18.3378 3.96613C18.4463 1.70261 16.9569 0.0917536 14.8797 0.00195737C14.077 -0.0330851 13.4836 0.307484 13.2634 1.08608C13.1029 1.65224 13.1116 2.26767 13.0465 2.8612C13.0215 3.09226 13.0573 3.35179 12.9651 3.55219C12.0409 5.56494 11.2079 7.63683 10.1101 9.55212C9.27162 11.0119 8.08926 12.2712 7.06202 13.6181C6.76264 13.5502 6.44915 13.4221 6.13458 13.4177C4.85134 13.3947 3.56486 13.3487 2.28596 13.4276C0.899675 13.513 0.0351455 14.4635 0.0221288 15.8784C-0.00607418 19.0366 -0.00607418 22.1944 0.0221288 25.3519C0.0394845 26.8291 1.06022 27.7829 2.5246 27.807C3.42854 27.8238 4.33248 27.8238 5.23642 27.807C5.70394 27.7983 6.23546 27.8738 6.62271 27.6778C7.38961 27.2902 8.12506 27.5026 8.88762 27.5398C12.3696 27.714 15.8505 27.9034 19.3347 27.9976C20.6618 28.0363 21.9743 27.7092 23.1312 27.0514C24.4492 26.3013 25.1835 25.1997 25.139 23.6227C25.1473 23.3974 25.2333 23.1821 25.382 23.0139C26.3203 21.9725 26.6197 20.7832 26.3062 19.4144C26.2604 19.1954 26.2947 18.967 26.4028 18.7716ZM6.79952 25.1526C6.79952 25.9257 6.52183 26.2006 5.75059 26.206C4.6843 26.2126 3.61692 26.2148 2.55063 26.206C1.88895 26.2006 1.57438 25.8983 1.57438 25.2402C1.56787 22.1382 1.56787 19.0355 1.57438 15.932C1.57438 15.3046 1.8922 14.9957 2.51809 14.9903C3.60282 14.9793 4.68755 14.9826 5.77228 14.9903C6.50556 14.9903 6.79193 15.2772 6.79518 16.012C6.80277 17.5451 6.79518 19.0782 6.79518 20.6113C6.8006 22.1203 6.80494 23.6381 6.79952 25.1526ZM24.9275 18.0839C24.5251 18.558 24.4307 18.9796 24.6845 19.5677C25.0891 20.5029 24.8624 21.3976 24.0608 22.0776C23.5922 22.4751 23.4176 22.8661 23.5456 23.4957C23.7354 24.4298 23.2755 25.1219 22.4988 25.5939C21.3924 26.2652 20.1482 26.4645 18.8986 26.4196C15.4882 26.2969 12.08 26.0987 8.67176 25.9279C8.57618 25.9138 8.48211 25.8907 8.39082 25.8589C8.39082 22.6295 8.48736 19.4516 8.3496 16.2846C8.28126 14.7176 8.81278 13.6313 9.86822 12.5855C11.2784 11.1849 12.1169 9.38347 12.9662 7.60836C13.3589 6.78924 13.7006 5.94494 14.0596 5.10939C14.4187 4.27385 14.7994 3.41202 14.6161 2.43412C14.5684 2.18116 14.6649 1.90082 14.6942 1.64348C15.8418 1.55587 16.7172 2.30052 16.7432 3.50511C16.7606 4.34941 16.6239 5.20904 16.4547 6.04021C16.1911 7.33897 15.8299 8.61802 15.5381 9.9124C15.4883 10.1997 15.4883 10.4935 15.5381 10.7808C15.69 11.9153 16.267 12.3139 17.3821 12.0752C19.0472 11.7237 20.7188 11.4094 22.4305 11.6032C22.931 11.651 23.4234 11.7628 23.8959 11.9361C24.8472 12.3095 25.2117 13.1965 24.7637 14.1262C24.4752 14.7263 24.5414 15.1534 24.9601 15.6594C25.6261 16.4489 25.6076 17.2812 24.9275 18.0839Z" fill="white"/>
</g>
<defs>
<clipPath id="clip0_233_1196">
<rect width="27" height="28" fill="white"/>
</clipPath>
</defs>
</svg>
