<svg width="100" height="100" viewBox="0 0 100 100" fill="none" xmlns="http://www.w3.org/2000/svg">
<g clip-path="url(#clip0_264_1308)">
<path d="M60.2361 29.6C67.1433 29.768 71.7246 26.5951 73.9176 20.3038C74.1365 19.6629 75.1685 18.8228 75.7431 18.8814C77.0057 19.0065 77.0135 20.1006 76.6656 21.1517C76.3803 22.0075 76.1301 22.875 75.8408 23.8167C77.2559 25.2977 79.0501 25.4462 80.86 24.989C85.0348 23.9105 88.7249 21.9372 91.8052 18.5493C91.1875 17.8967 90.4097 17.3418 90.0266 16.5954C89.7139 15.9741 89.8624 15.1145 89.8077 14.3642C90.5582 14.4267 91.4221 14.2899 92.028 14.6182C92.6339 14.9464 92.8801 15.724 93.2906 16.3102L94.1154 16.1265C95.0731 13.5397 96.2966 11.0154 96.9221 8.35036C97.6179 5.38057 95.5891 3.09461 92.5049 3.03599C88.205 2.95003 83.9051 2.98519 79.6052 3.03599C78.7617 3.06101 77.932 3.2564 77.166 3.61041C75.1098 4.54434 75.0747 5.19691 75.7587 7.32656C76.4703 9.61087 76.9676 11.9565 77.2442 14.3329C77.3302 14.9972 76.5483 16.2867 75.9464 16.4235C74.6955 16.7478 74.4961 15.5795 74.3163 14.5479C73.9645 12.5159 73.7847 10.3901 73.0303 8.49885C71.6699 5.07577 68.9805 3.08679 65.2123 3.02818C59.6771 2.96956 54.1381 2.9383 48.6107 3.11805C42.9466 3.30562 38.6272 6.05268 36.0238 11.0388C34.5305 13.8914 33.5924 17.0409 32.4666 20.081C32.0757 21.1635 31.759 22.3905 30.2658 21.8746C28.8898 21.4057 29.2573 20.2569 29.6482 19.2487C30.9147 15.9351 31.9115 12.4495 33.6158 9.33899C36.9072 3.21965 42.3837 0.26158 49.2792 0.0857374C54.5524 -0.0510294 59.8335 0.0310307 65.1028 0.0583841C68.0619 0.0583841 70.0399 0.87117 72.9638 3.12587C75.6688 -0.136997 79.441 -0.0666599 83.2601 0.0310307C86.3208 0.105276 89.3816 0.0310307 92.4423 0.0544764C97.5592 0.120906 101.042 4.54043 99.7404 9.49139C97.2804 18.9869 91.3139 25.0867 81.8411 27.7908C79.0697 28.5723 76.5835 27.9745 74.0583 26.4348C70.9741 30.6434 66.5257 32.0423 61.6629 32.5386C60.3925 32.6675 59.9351 33.2263 60.0133 34.5666C60.1016 36.6025 60.9187 38.5389 62.3157 40.0229C63.7127 41.5069 65.5966 42.4398 67.6241 42.6515C68.7616 42.7687 70.0946 42.7922 69.8952 44.3552C69.6881 46.0042 68.2847 45.7502 67.112 45.5744C61.1547 44.6874 57.1245 40.0373 57.0542 33.9961C57.0542 33.4764 57.0542 32.9528 57.0542 32.433C57.0542 25.7158 57.0268 25.6885 62.0225 21.3471C62.5385 20.8977 63.8402 20.6633 64.3171 20.9915C65.3921 21.734 64.7666 22.6796 64.0005 23.4338C63.074 24.3443 62.1554 25.2704 61.2368 26.1926C59.8882 27.5329 59.8882 27.5368 60.2361 29.6Z" fill="#546DE5"/>
<path d="M46.4378 61.0837C48.7832 58.3172 51.8361 57.774 55.1627 57.8756C58.6808 57.985 62.1989 57.8756 65.717 57.9068C71.1896 57.9694 74.5474 62.4553 73.1441 67.7502C71.8385 72.6425 69.4071 76.8745 65.5997 80.2545C64.8179 80.9462 63.9423 81.8449 62.9221 80.7625C61.8158 79.5902 62.8126 78.8087 63.6726 78.0272C66.9444 75.1473 69.024 71.5132 70.2241 67.3672C71.3381 63.5182 69.3954 60.904 65.4199 60.8727C61.5109 60.8454 57.6019 60.8297 53.6929 60.8727C52.658 60.8689 51.6316 61.0598 50.6674 61.4354C48.5878 62.3186 48.365 63.0727 49.2562 65.1047C49.3344 65.2844 49.5181 65.4955 49.4829 65.6322C49.2992 66.4137 49.0608 67.1953 48.8419 67.9768C48.1539 67.5626 47.1102 67.3125 46.8326 66.7107C44.9289 62.5374 41.7822 60.6813 37.2087 60.8219C32.3967 60.9665 27.573 60.8219 22.7454 60.9118C16.6004 61.0251 11.9214 63.823 9.23197 69.3093C6.02713 75.9327 3.91506 83.0308 2.97758 90.3284C2.88284 91.2398 2.91044 92.1597 3.05966 93.0637C3.36457 95.3458 4.75617 96.9088 7.03512 96.9088C9.46651 96.9088 12.0152 96.7056 14.3019 95.9515C17.4917 94.9003 20.5094 93.306 23.535 91.8133C24.0627 91.5515 24.2855 90.641 24.6334 90.0471C24.6882 89.9455 24.6334 89.7852 24.6334 89.6563C25.1846 86.5536 24.2034 84.0918 21.6352 82.2318C21.0271 81.8433 20.529 81.3051 20.1889 80.6688C19.9583 80.1256 19.9504 79.1487 20.2905 78.8009C20.6306 78.4531 21.7759 78.4101 22.1238 78.7149C23.9142 80.3171 25.5989 82.0442 27.2329 83.8144C27.5691 84.1778 27.6238 84.9046 27.6238 85.4673C27.6551 89.2421 27.6238 93.0168 27.6473 96.7994C27.6473 97.9014 27.5574 99.0737 26.1775 99.1127C24.7976 99.1518 24.6256 98.042 24.6256 96.9088C24.6256 96.268 24.6256 95.6271 24.6256 94.7596C22.4757 95.76 20.615 96.8893 18.5979 97.495C15.2049 98.5266 11.7455 99.695 8.25081 99.9568C3.22775 100.348 0.0223729 96.9987 -0.00108109 91.9579C-0.0335281 89.8776 0.213645 87.8023 0.733811 85.7877C2.14496 80.657 3.50529 75.4794 5.42461 70.5246C8.73553 61.9473 14.9469 57.9459 24.1174 57.9029C28.5463 57.8834 32.9752 57.942 37.408 57.9029C40.7111 57.8326 43.7054 58.6415 46.4378 61.0837Z" fill="#546DE5"/>
<path d="M51.383 37.1223C47.259 38.6853 43.3774 40.35 39.355 41.5418C37.2287 42.1171 35.0068 42.2501 32.827 41.9326C29.0392 41.4246 26.5726 38.658 26.6078 34.8324C26.643 31.6868 27.2919 28.5333 27.8587 25.415C27.9564 24.8836 29.0314 24.5319 29.6334 24.0943C29.9734 24.7625 30.5246 25.4033 30.5989 26.0989C30.6732 26.7944 30.2979 27.6033 30.0673 28.5568H33.1358C33.6518 27.5408 32.9834 25.4854 35.016 25.8488C35.7119 25.9738 36.1887 27.318 36.7712 28.1074L36.3803 28.5724H38.413L40.6997 25.7315L42.7168 28.2363C43.4986 29.1038 45.7111 28.0918 45.5273 30.3308C45.4687 31.0342 43.737 31.6047 42.494 32.4175L40.7232 34.7777L38.6983 32.2065L39.0892 31.8157H37.08L34.8519 34.7777L32.8348 32.1987L33.1945 31.8079H29.7545C28.4372 36.3407 30.6966 39.3965 35.3366 39.1894C40.9734 38.9432 45.7971 36.3056 50.5817 33.6679C50.8553 33.5155 50.996 33.074 51.1407 32.7457C51.2149 32.5816 51.1407 32.355 51.1641 32.1674C51.6019 29.0061 50.9882 26.2786 48.1464 24.3522C47.4863 23.9259 46.9477 23.3363 46.5828 22.6406C46.4798 22.3577 46.4463 22.0543 46.485 21.7557C46.5238 21.4572 46.6337 21.1724 46.8056 20.9252C47.1261 20.6008 48.1894 20.4836 48.4865 20.7571C50.355 22.4648 52.1336 24.274 53.8457 26.1379C54.1701 26.4935 54.1232 27.2516 54.131 27.8221C54.1662 30.1003 54.092 32.3823 54.174 34.6566C54.4477 42.21 60.0884 47.9972 67.6484 48.5208C68.7272 48.5951 69.9273 48.6263 69.8843 50.0839C69.8335 51.6469 68.5553 51.6039 67.4177 51.5258C63.8194 51.2864 60.3848 49.9337 57.5901 47.6553C54.7954 45.3769 52.7791 42.2857 51.8208 38.8104C51.6567 38.1891 51.5042 37.5677 51.383 37.1223Z" fill="#546DE5"/>
<path d="M33.8583 87.8509C36.2311 87.2413 38.7602 86.9638 40.9493 85.9518C45.0224 84.0722 47.2388 80.6413 47.6649 76.1358C47.7627 75.1003 47.8252 74.057 47.8252 73.0097C47.8252 71.8374 47.7705 70.5479 49.3223 70.5792C50.8742 70.6104 50.8859 71.9625 50.757 73.0761C50.456 75.9561 50.069 78.8282 49.6702 82.0637C50.8429 83.2047 52.6684 83.2985 54.5604 82.7827C55.8738 82.4271 57.1052 81.7433 58.4264 81.4658C59.0323 81.3369 59.7711 81.8292 60.4513 82.0402C60.1503 82.728 60.0291 83.7987 59.5131 84.0409C55.6627 85.858 51.7225 87.253 47.5711 84.2207C44.1468 89.0661 38.9479 90.0079 33.4987 90.6839C33.4987 92.9034 33.6316 94.9823 33.4323 97.0377C33.358 97.788 32.5058 98.464 32.0094 99.1752C31.5051 98.4718 30.5943 97.784 30.567 97.065C30.4223 93.1574 30.4575 89.2498 30.5357 85.3422C30.5839 84.5837 30.8791 83.8618 31.3761 83.2868C32.6538 81.8082 34.0458 80.4324 35.5392 79.172C36.063 78.7422 37.1028 78.9259 37.8846 78.8321C37.7673 79.6136 37.8846 80.5905 37.4937 81.1767C36.7432 82.2512 35.5705 82.9937 34.7887 84.0136C34.0929 84.9436 33.6746 86.0846 33.1313 87.1397L33.8583 87.8509Z" fill="#546DE5"/>
<path d="M82.9518 56.3789C84.2457 56.3789 85.1839 56.1952 85.993 56.4375C86.6693 56.6407 87.2009 57.3362 87.7951 57.8169C87.1736 58.3366 86.5911 59.2432 85.9305 59.3018C83.7909 59.4347 81.6458 59.4543 79.5041 59.3604C78.3314 59.3604 77.7255 58.7156 77.7333 57.5121C77.7333 55.3668 77.6356 53.2137 77.8037 51.084C77.8506 50.4588 78.6754 49.9118 79.1445 49.2983C79.6487 49.8571 80.3954 50.3377 80.5947 50.9864C80.8488 51.8109 80.6573 52.7682 80.6573 54.0734C81.3218 53.5419 81.7088 53.2919 82.0371 52.9558C86.8491 48.208 89.4994 42.5615 89.1789 35.688C89.1789 35.2972 89.0186 34.8088 89.1984 34.5392C89.6509 33.9392 90.1488 33.3748 90.6877 32.8511C91.1803 33.4255 92.0676 33.9765 92.1028 34.5743C92.3843 39.6542 91.6533 44.5896 88.8583 48.9622C87.541 51.0293 85.864 52.8698 84.3395 54.8236C83.9877 55.2379 83.6007 55.6442 82.9518 56.3789Z" fill="#546DE5"/>
<path d="M19.8684 32.1166C14.1769 37.2512 11.1083 43.0579 11.2686 50.4199C11.296 51.6195 11.812 53.4483 9.86137 53.46C7.91078 53.4717 8.44241 51.6313 8.40332 50.4082C8.18441 43.5034 10.5533 37.556 15.2753 32.5152C15.936 31.8079 16.5692 31.0693 17.2298 30.3425C17.2572 30.3113 17.2298 30.2292 17.1986 29.9088C16.2721 29.9088 15.2792 30.0768 14.3841 29.8462C13.786 29.6939 13.3287 28.9788 12.8205 28.5137C13.3677 28.0097 13.8876 27.1226 14.4701 27.0757C16.6813 26.8895 18.9042 26.8895 21.1154 27.0757C21.7213 27.1305 22.679 28.0995 22.7259 28.7169C22.9105 30.9274 22.9105 33.1494 22.7259 35.3599C22.6751 35.9617 21.7955 36.497 21.2952 37.0597C20.83 36.4619 20.1499 35.9226 19.9583 35.2466C19.6925 34.3869 19.8684 33.453 19.8684 32.1166Z" fill="#546DE5"/>
<path d="M55.5072 19.8153C56.5704 18.5883 57.1412 17.6505 57.9699 17.0799C58.5171 16.6892 59.4357 16.8572 60.1863 16.7712C60.155 17.5215 60.4091 18.4906 60.0338 18.983C59.108 20.2333 58.0044 21.3417 56.7581 22.2732C56.4012 22.4607 56.0042 22.5587 55.601 22.5587C55.1979 22.5587 54.8008 22.4607 54.4439 22.2732C53.1956 21.3392 52.085 20.2342 51.1447 18.9908C50.7538 18.4906 50.9258 17.5528 50.8398 16.8142C51.6216 16.8924 52.6028 16.7126 53.1852 17.1073C54.0061 17.6544 54.5456 18.6352 55.5072 19.8153Z" fill="#546DE5"/>
<path d="M29.0424 77.7616C30.1174 76.476 30.6685 75.5225 31.4894 74.9403C32.021 74.5495 32.9397 74.7215 33.6863 74.6394C33.6472 75.3858 33.8934 76.3509 33.5182 76.8433C32.5839 78.0742 31.3761 79.098 30.2659 80.1882C29.4841 80.9698 28.6632 80.9698 27.8736 80.1882C26.7634 79.0941 25.5595 78.0664 24.6135 76.8433C24.2226 76.3392 24.4024 75.3975 24.3242 74.655C25.106 74.7371 26.0872 74.5652 26.6696 74.9598C27.4866 75.546 28.0221 76.5268 29.0424 77.7616Z" fill="#546DE5"/>
</g>
<defs>
<clipPath id="clip0_264_1308">
<rect width="100" height="100" fill="white"/>
</clipPath>
</defs>
</svg>
