<svg width="35" height="28" viewBox="0 0 35 28" fill="none" xmlns="http://www.w3.org/2000/svg">
<g clip-path="url(#clip0_233_1126)">
<path d="M18.2647 0.852926C17.9912 1.00875 17.6903 1.30674 17.4332 1.27667C17.2048 1.24933 16.8861 0.87753 16.845 0.623283C16.7876 0.213207 17.1391 -0.0752135 17.5494 0.0177371C17.823 0.0778816 18.0336 0.366302 18.2743 0.552203L18.2647 0.852926Z" fill="white"/>
<path d="M25.4233 23.5426C24.3578 23.5426 23.3621 23.5426 22.3664 23.5426C21.4952 23.5426 21.3256 23.3608 21.3201 22.501C21.3201 22.0472 21.3201 21.5934 21.3201 21.0958C20.4366 21.2106 19.5954 21.3446 18.7488 21.4252C15.6031 21.7273 12.7062 20.8525 9.96257 19.3967C6.1644 17.3792 3.00086 14.6029 0.332439 11.2444C0.024702 10.8535 -0.169515 10.4953 0.207977 10.0333C3.72439 5.69472 7.86722 2.19403 13.2191 0.311783C13.4927 0.214732 13.7908 0.160055 14.0726 0.0698383C14.5267 -0.0777891 14.9137 -0.0121769 15.0655 0.479915C15.2338 1.02668 14.8809 1.26726 14.409 1.39028C11.8993 2.04094 9.68082 3.26707 7.61419 4.79118C5.33016 6.49191 3.26318 8.46587 1.45944 10.6689C2.99129 12.1507 4.44244 13.6912 6.03584 15.0663C8.64682 17.319 11.5519 19.0851 14.9766 19.8505C16.8914 20.2784 19.538 20.1786 21.2572 19.6113C21.2806 19.573 21.2973 19.5309 21.3065 19.4869C21.3721 18.079 21.3721 18.079 22.8205 18.079H25.4192C25.4192 17.0265 25.4192 16.0286 25.4192 15.0349C25.4192 14.1614 25.5888 13.9865 26.4518 13.9796C27.5911 13.9714 28.7304 13.9919 29.8711 13.966C30.1187 13.966 30.436 13.8853 30.5974 13.7199C31.563 12.7262 32.493 11.6982 33.4122 10.7127C33.3899 10.6179 33.3564 10.5261 33.3123 10.4393C30.5851 7.20243 27.4762 4.42485 23.6371 2.5631C22.7015 2.10928 21.6922 1.80446 20.7074 1.4559C20.2355 1.2905 19.724 1.15381 19.9127 0.507253C20.1015 -0.139301 20.6199 -0.00807612 21.0986 0.125882C24.2088 0.982941 26.8895 2.62461 29.3856 4.60802C31.3331 6.15279 33.0992 7.91323 34.6499 9.85562C35.0466 10.3532 35.089 10.7646 34.6595 11.2376C33.5435 12.4678 32.4219 13.698 31.3373 14.9529C31.1023 15.233 30.9541 15.5755 30.9106 15.9384C30.8449 16.6123 30.8914 17.2958 30.8914 18.0694C31.9186 18.0694 32.8883 18.0694 33.8594 18.0694C34.8551 18.0694 34.9932 18.2171 34.9946 19.2286C34.9946 20.2989 34.9946 21.3692 34.9946 22.4395C34.9946 23.3854 34.8401 23.533 33.8717 23.5412C32.9034 23.5494 31.9569 23.5412 30.8928 23.5412V26.4815C30.8928 27.493 30.756 27.6365 29.7576 27.6406C28.7086 27.6406 27.6609 27.6406 26.6118 27.6406C25.5628 27.6406 25.4192 27.5039 25.4178 26.4719C25.4219 25.5233 25.4233 24.5719 25.4233 23.5426ZM29.5265 26.2313C29.5265 25.1979 29.5265 24.2015 29.5265 23.2063C29.5265 22.3506 29.7029 22.1784 30.5782 22.1716C31.5726 22.1647 32.5683 22.1716 33.5954 22.1716V19.4377C32.5683 19.4377 31.5739 19.4377 30.5782 19.4377C29.7043 19.4377 29.5306 19.2573 29.5265 18.403C29.5265 17.4065 29.5265 16.41 29.5265 15.3958H26.791V18.2348C26.791 19.3215 26.6707 19.4391 25.5601 19.4418H22.7344V22.1757C23.7533 22.1757 24.7299 22.1757 25.7078 22.1757C26.6283 22.1757 26.7897 22.3424 26.7924 23.2446C26.7924 24.2384 26.7924 25.2335 26.7924 26.2354L29.5265 26.2313Z" fill="white"/>
<path d="M17.4909 17.3861C16.1376 17.3861 14.8146 16.9847 13.6896 16.2329C12.5646 15.481 11.6881 14.4125 11.1711 13.1625C10.654 11.9125 10.5197 10.5373 10.7852 9.21104C11.0506 7.88474 11.7038 6.66697 12.6621 5.7119C13.6204 4.75683 14.8407 4.10741 16.1686 3.84586C17.4964 3.58431 18.872 3.72239 20.1212 4.24262C21.3705 4.76285 22.4372 5.64184 23.1863 6.7683C23.9355 7.89476 24.3333 9.21804 24.3295 10.5706C24.3223 12.3793 23.5989 14.1115 22.3174 15.3886C21.0359 16.6658 19.3007 17.3839 17.4909 17.3861ZM17.402 5.09472C16.6772 5.10669 15.9619 5.26253 15.2979 5.55316C14.6338 5.84379 14.0342 6.26342 13.5338 6.78767C13.0334 7.31193 12.6423 7.93034 12.3831 8.60698C12.124 9.28362 12.0019 10.005 12.0241 10.7292C12.0939 13.6639 14.5914 16.0602 17.547 16.0137C18.2721 16.0061 18.9885 15.8545 19.6545 15.5678C20.3205 15.281 20.9229 14.8648 21.4265 14.3433C21.93 13.8218 22.3249 13.2055 22.588 12.5301C22.8511 11.8547 22.9772 11.1338 22.9591 10.4093C22.903 7.44309 20.3796 5.03184 17.402 5.09472Z" fill="white"/>
<path d="M17.4876 13.2793C16.9484 13.2776 16.4218 13.1163 15.9744 12.8157C15.5269 12.5151 15.1786 12.0887 14.9735 11.5904C14.7685 11.092 14.7158 10.5441 14.8222 10.0159C14.9285 9.48761 15.1892 9.00272 15.5712 8.62247C15.9532 8.24221 16.4394 7.98365 16.9684 7.87945C17.4974 7.77525 18.0454 7.83009 18.5432 8.03705C19.0411 8.244 19.4663 8.59378 19.7653 9.04219C20.0643 9.4906 20.2236 10.0175 20.223 10.5564C20.2201 11.2795 19.9307 11.9721 19.418 12.4824C18.9053 12.9927 18.2112 13.2793 17.4876 13.2793ZM18.8553 10.5673C18.8608 10.2977 18.7865 10.0326 18.6416 9.80517C18.4967 9.57775 18.2877 9.39823 18.041 9.2892C17.7943 9.18016 17.5208 9.14648 17.255 9.19239C16.9892 9.2383 16.7428 9.36175 16.547 9.54721C16.3512 9.73266 16.2147 9.97185 16.1546 10.2347C16.0944 10.4975 16.1134 10.7722 16.2091 11.0243C16.3048 11.2764 16.473 11.4945 16.6924 11.6513C16.9119 11.8081 17.1728 11.8966 17.4425 11.9055C17.6238 11.9128 17.8047 11.8838 17.9746 11.82C18.1444 11.7563 18.2998 11.6592 18.4315 11.5345C18.5632 11.4097 18.6686 11.2599 18.7414 11.0938C18.8142 10.9276 18.8529 10.7486 18.8553 10.5673Z" fill="white"/>
</g>
<defs>
<clipPath id="clip0_233_1126">
<rect width="35" height="28" fill="white"/>
</clipPath>
</defs>
</svg>
