<svg width="23" height="31" viewBox="0 0 23 31" fill="none" xmlns="http://www.w3.org/2000/svg">
<g clip-path="url(#clip0_233_1115)">
<path d="M1.57214 19.1565C1.48994 19.125 1.34488 19.0645 1.19741 19.0088C0.0901414 18.5912 -0.307557 17.5237 0.254539 16.461C0.677622 15.6597 1.12126 14.8681 1.525 14.056C1.59745 13.8618 1.60424 13.6492 1.54434 13.4508C1.39445 12.8601 1.08983 12.2852 1.06081 11.6921C0.989495 10.4454 1.02213 9.19027 1.07169 7.93996C1.07855 7.45613 1.18903 6.9794 1.39565 6.54198C3.07711 3.30424 5.47176 0.91497 9.20456 0.176644C12.9374 -0.561681 19.141 0.968226 21.3652 5.61C22.8157 8.64197 23.1252 11.7369 21.891 14.9238C21.2298 16.634 20.6085 18.3588 19.9303 20.0618C19.5229 21.0822 19.6329 22.0843 19.9303 23.0805C20.0431 23.3779 20.2444 23.6335 20.5069 23.8128C21.0315 24.1843 21.6239 24.4603 22.1485 24.8307C22.4688 25.057 22.8218 25.3451 22.9584 25.6864C23.0623 25.9442 22.9427 26.4066 22.7529 26.639C22.5014 26.9476 22.1013 26.8641 21.7737 26.6111C21.3325 26.2698 20.9107 25.8946 20.4344 25.6138C18.406 24.4167 17.5526 22.37 18.3081 20.1018C19.0019 18.0199 19.8856 16.0022 20.5722 13.918C21.6758 10.564 21.0992 7.43887 18.8702 4.71916C17.3749 2.88061 15.2317 2.07935 12.964 1.70776C8.30158 0.94765 5.08736 3.08153 2.93084 6.91235C2.73296 7.28582 2.62415 7.7001 2.61292 8.12272C2.56941 9.33309 2.57303 10.5435 2.60205 11.7538C2.62015 12.0675 2.72384 12.3702 2.90183 12.6289C3.31887 13.2341 3.41195 13.832 3.05777 14.4965C2.53919 15.4527 2.05566 16.4186 1.57214 17.3482C2.15841 17.7052 2.706 18.0526 3.27173 18.3685C3.36722 18.4218 3.54008 18.3322 3.67789 18.3153C5.7933 18.055 7.90872 17.7645 10.0265 17.5455C11.2595 17.4184 12.3233 17.9231 13.0486 18.8853C13.9092 20.0182 14.7893 21.179 15.3912 22.4559C16.2966 24.3804 16.976 26.4138 17.7339 28.4073C17.9116 28.8733 17.7448 29.2667 17.2613 29.4228C16.7777 29.579 16.4393 29.3623 16.2713 28.8854C16.2241 28.7535 16.1915 28.6143 16.1419 28.4836C15.5375 26.904 15.0056 25.2918 14.3045 23.7571C13.7714 22.5927 13.057 21.5046 12.3571 20.4249C11.6451 19.3271 10.5935 18.8793 9.28434 19.0742C7.45179 19.3465 5.61923 19.614 3.78789 19.8875C3.71898 19.9008 3.65225 19.9236 3.58964 19.9553C3.75283 20.3995 3.90756 20.8231 4.07317 21.2673C5.0523 21.1173 6.12814 20.9442 7.19673 20.7917C7.59442 20.736 8.00179 20.7457 8.39949 20.6912C10.1063 20.4588 11.2305 21.2177 12.0428 22.6798C13.1936 24.7544 14.0337 26.9488 14.7482 29.1989C14.9053 29.6952 14.6647 30.1527 14.2102 30.241C13.6723 30.3451 13.4209 30.0316 13.2371 29.5596C12.5276 27.744 11.7781 25.9394 11.0685 24.1202C10.4847 22.6242 9.50918 21.9137 7.84586 22.2719C6.70716 22.514 5.54066 22.6351 4.39229 22.8457C4.23877 22.8747 4.04899 23.0877 4.00305 23.256C3.60777 24.6854 4.37658 24.9868 5.41494 24.8839C6.11363 24.8149 6.8087 24.6515 7.50618 24.6419C7.82893 24.6419 8.35235 24.8428 8.44422 25.0849C9.09214 26.7285 9.66995 28.3988 10.2224 30.0776C10.3686 30.5206 10.093 30.8825 9.63127 30.9745C9.1695 31.0665 8.87214 30.8184 8.7295 30.3693C8.34147 29.1699 7.94256 27.9595 7.5642 26.7491C7.44332 26.386 7.27893 26.2734 6.86672 26.3194C6.08592 26.4079 5.29934 26.4342 4.51438 26.3981C3.24876 26.3352 2.23819 25.1417 2.33853 23.8987C2.40017 23.1652 2.5271 22.4813 2.156 21.7285C1.9505 21.3097 1.82841 20.8135 1.59994 20.3596C1.45126 20.0521 1.57214 19.6007 1.57214 19.1565Z" fill="white"/>
</g>
<defs>
<clipPath id="clip0_233_1115">
<rect width="23" height="31" fill="white"/>
</clipPath>
</defs>
</svg>
