<svg width="79" height="92" viewBox="0 0 79 92" fill="none" xmlns="http://www.w3.org/2000/svg">
<path d="M40.8663 37.6121H43.9463C44.156 35.6208 44.7903 33.708 46.6016 32.6744C47.7969 31.994 49.2753 31.4811 50.6332 31.468C53.8652 31.4366 56.0147 33.7629 56.6805 37.6749C59.0082 37.6749 61.3621 37.6749 63.7134 37.6749C65.5482 37.6749 66.1144 38.1826 66.0175 39.9908C65.4775 50.162 60.7932 57.8212 51.8625 62.7433C50.4182 63.5283 50.0801 64.3866 50.4339 65.8834C51.1546 65.884 51.8748 65.9233 52.5913 66.0011C53.684 66.1585 54.6855 66.6972 55.4182 67.5216C56.1509 68.3459 56.5675 69.4027 56.594 70.5045C56.6411 71.5512 56.6228 72.5979 56.594 73.6446C56.5389 76.523 54.5992 78.4437 51.7026 78.5039C51.278 78.5039 50.8534 78.5039 50.3055 78.5039C50.3055 80.0556 50.3055 81.4844 50.3055 82.9131C50.2662 87.7017 46.9214 91.025 42.114 91.0642C40.1926 91.0773 38.2686 91.0826 36.3472 91.0642C31.7023 91.0171 28.3366 87.6625 28.2841 83.0518C28.2658 81.5812 28.2841 80.108 28.2841 78.5039C27.6524 78.5039 27.1413 78.5222 26.6301 78.5039C24.0298 78.394 22.1058 76.4995 22.0035 73.9168C21.959 72.7837 21.9564 71.648 22.0035 70.515C22.1136 67.9375 24.0508 66.0665 26.6511 65.9488C27.1308 65.9305 27.6078 65.9488 28.0718 65.9488C28.5803 63.9548 28.4729 63.7717 26.8398 62.848C17.2774 57.4339 12.2629 49.1938 12.6639 38.2716C13.065 27.3493 18.6667 19.4834 28.5987 14.8047C31.7442 13.3183 35.1519 12.6563 38.6251 12.5621C40.3053 12.5176 40.8558 13.0514 40.8637 14.6869C40.8637 17.5653 40.8794 20.4437 40.8637 23.3221C40.8637 25.0282 40.1245 25.6065 38.4678 25.235C37.8529 25.0653 37.2003 25.0916 36.6011 25.3102C36.0019 25.5288 35.486 25.9289 35.1257 26.4544C34.7532 26.9728 34.5502 27.5934 34.5446 28.2314C34.539 28.8694 34.7309 29.4935 35.0942 30.0184C35.4563 30.5407 35.9686 30.9412 36.5634 31.1668C37.1582 31.3925 37.8076 31.4327 38.4259 31.2822C40.1716 30.9211 40.8584 31.4733 40.8715 33.271C40.8768 34.6997 40.8663 36.1258 40.8663 37.6121ZM47.1573 65.9095C47.1932 65.1387 47.188 64.3666 47.1416 63.5963C46.9712 62.0629 47.6475 61.3093 49.0525 60.6447C57.341 56.7196 61.8103 50.0443 62.8903 40.8203C60.2873 40.8203 57.8102 40.8203 55.3331 40.8203C53.5271 40.8203 52.974 40.1216 53.3357 38.3841C53.4922 37.7663 53.4557 37.1155 53.2308 36.5191C53.006 35.9227 52.6038 35.4093 52.0781 35.0478C51.5525 34.6863 50.9286 34.494 50.2903 34.4968C49.6519 34.4996 49.0298 34.6973 48.5073 35.0634C47.4588 35.7883 46.9922 37.0522 47.2753 38.3998C47.6266 40.0745 47.0761 40.7941 45.388 40.815C43.9174 40.8333 42.4469 40.815 40.9318 40.815V43.8871C44.7431 44.4915 47.1102 46.6765 47.0761 49.9056C47.063 51.2584 46.5518 52.729 45.8651 53.9223C44.8165 55.7278 42.9083 56.3506 40.9659 56.5678V65.8965L47.1573 65.9095ZM15.8881 40.8857C15.8447 40.9809 15.8173 41.0825 15.8068 41.1866C16.7854 50.3155 21.4365 56.8347 29.7599 60.7441C30.9683 61.3119 31.5476 62.0028 31.4402 63.3268C31.372 64.1746 31.4402 65.0303 31.4402 65.8703H37.7312V64.5253C37.7312 61.3852 37.7312 58.2451 37.7312 55.105C37.7312 53.4853 38.4993 52.9044 40.0694 53.2341C41.5242 53.5376 42.8034 53.0928 43.5138 51.9806C43.8684 51.4757 44.0603 50.8748 44.0641 50.2582C44.0678 49.6415 43.8832 49.0384 43.5347 48.5292C42.8375 47.4066 41.5321 46.9303 40.1061 47.2208C38.4626 47.5662 37.747 46.9905 37.7286 45.2739C37.7129 43.8086 37.7286 42.3432 37.7286 40.8595H34.6984C33.7914 45.007 31.621 47.1004 28.2684 47.1004C24.9158 47.1004 22.8188 45.0594 21.8489 40.8909L15.8881 40.8857ZM37.6709 15.8121C24.7506 16.5971 16.0218 27.7183 15.896 37.6749C18.3809 37.6749 20.8764 37.6749 23.3483 37.6749C25.0573 37.6749 25.6235 38.4076 25.2513 40.0771C25.081 40.6924 25.1082 41.3454 25.3293 41.9444C25.5503 42.5434 25.9539 43.0581 26.4833 43.4161C27.0039 43.7857 27.6259 43.9862 28.2647 43.9905C28.9035 43.9947 29.5281 43.8023 30.0535 43.4396C30.5763 43.0762 30.9763 42.5629 31.2005 41.9676C31.4248 41.3724 31.4626 40.7231 31.3091 40.1059C30.9474 38.3658 31.5004 37.688 33.3117 37.6749C34.7403 37.6619 36.1716 37.6749 37.6473 37.6749V34.6029C33.8727 33.9932 31.5476 31.8893 31.5031 28.6995C31.5314 27.326 31.891 25.9796 32.5516 24.7744C33.5844 22.8328 35.5739 22.1577 37.6578 21.896L37.6709 15.8121ZM39.2647 69.081H28.9263C25.1229 69.081 25.1229 69.081 25.136 72.9276C25.136 74.9216 25.579 75.3534 27.6026 75.356H49.4588C53.4851 75.356 53.4851 75.356 53.4458 71.3105C53.4301 69.5756 52.9373 69.0836 51.1731 69.081C47.2045 69.081 43.235 69.081 39.2647 69.081ZM47.1285 78.5746H44.0118C44.0118 79.9902 44.0118 81.3326 44.0118 82.675C44.0118 84.0174 43.4063 84.8443 42.4023 84.7553C41.1966 84.6454 40.8427 83.8263 40.8584 82.7299C40.8794 81.3483 40.8584 79.9693 40.8584 78.6007H37.7129C37.7129 80.0059 37.7129 81.3117 37.7129 82.6174C37.7129 84.0121 37.1598 84.7553 36.1585 84.7684C35.1571 84.7815 34.5857 84.0357 34.5673 82.6567C34.549 81.2776 34.5673 79.9091 34.5673 78.5798H31.4559C31.4559 80.3068 31.3668 81.9632 31.4769 83.6039C31.5478 84.7517 32.0493 85.8308 32.8815 86.626C33.7136 87.4213 34.8153 87.8745 35.9671 87.8954C38.1926 87.9686 40.4233 87.9686 42.6514 87.8954C43.7826 87.8754 44.8658 87.4355 45.6897 86.6614C46.5136 85.8873 47.0191 84.8346 47.1075 83.7086C47.236 82.0391 47.1259 80.333 47.1259 78.5798L47.1285 78.5746Z" fill="white"/>
<path d="M50.3001 22.0688C46.2083 21.3439 43.9802 19.0333 44.0091 15.6394C44.0353 13.1195 45.6369 9.83027 50.3001 9.34094C50.3001 7.05653 50.3001 4.7538 50.3001 2.45107C50.3001 0.386466 50.7667 -0.0505287 52.8664 0.00442278C65.8496 0.347215 76.9821 10.6022 78.3898 23.5551C78.4868 24.4631 78.589 25.3868 78.6021 26.2896C78.6231 27.6895 78.0464 28.2573 76.6152 28.2652C73.7318 28.2835 70.8484 28.2652 67.9649 28.2652C66.0776 28.2652 65.5717 27.6162 65.9439 25.7505C66.0322 25.3447 66.0389 24.9254 65.9638 24.517C65.8886 24.1086 65.7331 23.7191 65.5061 23.3711C65.2791 23.0231 64.9853 22.7234 64.6415 22.4896C64.2978 22.2557 63.911 22.0922 63.5035 22.0086C62.6995 21.8397 61.8613 21.9965 61.1731 22.4445C60.4849 22.8925 60.0031 23.5951 59.8337 24.3977C59.7522 24.9094 59.7718 25.4321 59.8914 25.9363C60.1771 27.4488 59.6293 28.2338 58.1247 28.26C56.1587 28.2914 54.1927 28.2861 52.2242 28.26C50.8716 28.2443 50.3211 27.6921 50.2949 26.3497C50.2792 24.9472 50.3001 23.5498 50.3001 22.0688ZM53.4457 25.0335H56.5283C57.105 21.3361 59.1705 19.015 62.3292 18.9156C63.7105 18.9212 65.0695 19.2644 66.2873 19.9152C68.2952 20.9409 68.9977 22.9532 69.2441 25.0178H75.3465C74.4762 11.6568 62.8168 3.3303 53.4457 3.35646C53.4457 5.83451 53.4588 8.32827 53.4457 10.7958C53.4457 12.4339 52.6881 13.0332 51.1389 12.7061C49.6605 12.3973 48.4181 12.8317 47.6762 13.9176C47.3124 14.4418 47.1201 15.0656 47.1258 15.7033C47.1314 16.341 47.3347 16.9613 47.7077 17.479C48.578 18.633 49.7287 19.049 51.173 18.6801C52.6174 18.3111 53.4273 18.9418 53.4535 20.483C53.4745 21.9615 53.4509 23.4399 53.4509 25.0335H53.4457Z" fill="white"/>
<path d="M20.7553 5.05219C20.9807 5.23536 21.526 5.49442 21.8038 5.92356C22.8523 7.62706 23.8406 9.37766 24.8366 11.1178C25.3609 12.0127 25.2272 12.8422 24.3307 13.3786C23.4343 13.9151 22.64 13.5435 22.1289 12.68C21.0987 10.9555 20.0712 9.23112 19.1354 7.46482C18.48 6.27944 19.2088 5.01817 20.7553 5.05219Z" fill="white"/>
<path d="M12.293 53.3518C12.5708 53.5716 13.2628 53.8464 13.407 54.2991C13.5722 54.8041 13.4463 55.7801 13.0925 56.013C11.1366 57.2987 9.1069 58.4687 7.01371 59.5168C6.62576 59.7105 5.61919 59.2552 5.30988 58.8286C5.04775 58.4518 5.14211 57.3214 5.46453 57.1094C7.4934 55.788 9.62974 54.6288 11.732 53.4198C11.9157 53.3756 12.104 53.3527 12.293 53.3518Z" fill="white"/>
<path d="M13.6321 23.27C13.5902 24.6568 12.4683 25.4576 11.4879 24.9473C9.50402 23.9411 7.57868 22.8237 5.72113 21.6005C5.30958 21.3388 5.11561 20.2476 5.29386 19.6929C5.55598 18.8817 6.42101 18.5729 7.24671 19.0204C9.16024 20.0671 11.0528 21.1426 12.9087 22.2835C13.2914 22.519 13.4827 23.0737 13.6321 23.27Z" fill="white"/>
<path d="M73.5534 57.876C73.5062 59.2131 72.3974 60.0034 71.4171 59.4931C69.4099 58.4674 67.4611 57.3318 65.5795 56.0914C65.1915 55.8297 65.0054 54.6469 65.2675 54.2152C65.5297 53.7834 66.6437 53.37 67.0762 53.5819C69.0998 54.5684 71.0343 55.7433 72.9557 56.9235C73.2991 57.125 73.4354 57.6771 73.5534 57.876Z" fill="white"/>
<path d="M37.7185 4.68579C37.7185 3.6862 37.6949 2.68399 37.7185 1.68439C37.7421 0.6848 38.2952 -0.000785159 39.3358 0.0253822C40.3057 0.0436994 40.8378 0.690034 40.8535 1.64776C40.8824 3.69143 40.8876 5.7351 40.8535 7.77878C40.8352 8.7365 40.2821 9.37499 39.3122 9.3776C38.2637 9.3776 37.7395 8.7051 37.7264 7.68719C37.7133 6.66928 37.7185 5.68539 37.7185 4.68579Z" fill="white"/>
<path d="M4.7183 40.8204C3.71698 40.8204 2.71303 40.8413 1.7117 40.8204C0.710367 40.7995 0 40.2813 0 39.2504C0 38.2194 0.699882 37.7012 1.71694 37.6803C3.7196 37.662 5.72488 37.6568 7.72753 37.6803C8.68954 37.6803 9.33962 38.2037 9.36583 39.1849C9.39467 40.2316 8.73411 40.755 7.71443 40.8021C6.69475 40.8492 5.70915 40.8204 4.7183 40.8204Z" fill="white"/>
<path d="M73.8737 40.8203C72.8724 40.8203 71.8685 40.8491 70.8671 40.8203C69.8658 40.7915 69.1869 40.2446 69.2157 39.2031C69.2393 38.2349 69.8894 37.7116 70.8514 37.7011C72.8986 37.675 74.9459 37.6671 76.9931 37.7011C77.9498 37.7194 78.5658 38.2768 78.5842 39.2476C78.6025 40.2184 77.9656 40.7679 77.0114 40.8177C75.9682 40.8517 74.9196 40.8203 73.8737 40.8203Z" fill="white"/>
</svg>
