<svg width="100" height="98" viewBox="0 0 100 98" fill="none" xmlns="http://www.w3.org/2000/svg">
<path d="M2.95622 61.2606H10.0168C15.2263 61.2606 20.4358 61.2256 25.6375 61.2839C26.8091 61.2839 27.637 60.9727 28.1134 59.8757C29.5935 56.4876 32.2373 55.5268 35.834 55.6201C43.6443 55.8146 51.4547 55.6785 59.265 55.6785C63.7755 55.6785 64.8104 56.5382 65.6734 61.1789C68.9187 61.1789 72.2107 61.2567 75.495 61.0855C75.948 61.0622 76.7056 59.7863 76.6665 59.1055C76.5806 56.2114 74.2336 53.7257 71.3242 53.2511C70.3579 53.1174 69.3824 53.0614 68.4071 53.0839C52.0678 53.0839 35.7285 53.0748 19.3892 53.0566C18.2177 53.0566 16.3822 53.6285 16.3627 51.6329C16.3432 49.6373 18.1942 50.1819 19.3736 50.1819C36.1711 50.156 52.9634 50.156 69.7505 50.1819C75.2607 50.1819 79.572 54.1886 79.697 59.3234C79.7673 62.2214 77.9982 64.1353 75.081 64.1858C71.9569 64.2364 68.8562 64.1858 65.4587 64.1858C65.4587 67.5468 65.3142 70.7677 65.486 73.973C65.7984 79.7146 64.2559 82.9199 56.8946 82.5309C52.5091 82.2975 48.0962 82.4882 43.203 82.4882C44.9252 84.3281 46.292 85.853 47.7448 87.2884C48.1584 87.5879 48.6636 87.735 49.1741 87.7046C61.1499 87.7046 73.1258 87.7046 85.1017 87.7046C85.375 87.6712 85.6453 87.6165 85.9101 87.5412V85.499C85.9101 77.9097 85.9101 70.3281 85.9296 62.731C85.8883 62.0347 86.0396 61.3404 86.367 60.7238C86.9567 59.8446 88.3391 60.1442 88.6789 61.1828C88.8208 61.7469 88.8748 62.3294 88.839 62.9099C88.839 71.2085 88.839 79.5071 88.839 87.8057C88.839 90.4548 88.6242 90.6532 85.9257 90.6532C73.558 90.6532 61.1864 90.6532 48.8265 90.6843C47.3972 90.6843 46.3701 90.2953 45.4446 89.2178C44.0114 87.5373 42.5782 85.8141 40.8834 84.4215C39.7626 83.4957 38.1927 82.5932 36.8102 82.5737C25.8757 82.4259 14.9412 82.492 4.00672 82.4959C3.75288 82.4959 3.49904 82.5426 3.00309 82.5893C3.00309 86.0903 2.96013 89.5484 3.06166 93.0105C3.06166 93.4229 3.8427 93.9597 4.35037 94.1775C4.85805 94.3953 5.52193 94.2514 6.09208 94.2514H92.3966C96.1651 94.2514 97.0282 93.4151 97.0282 89.7196C97.0282 62.801 97.0282 35.8837 97.0282 8.96771C97.0282 4.49035 95.5403 3.00438 91.0845 3.00438H43.6599C43.1405 3.00438 42.4884 2.83322 42.1252 3.06273C41.434 3.47507 40.8951 4.13636 40.2937 4.69263C40.8638 5.29558 41.3481 6.03078 42.0315 6.46257C42.4532 6.72709 43.1718 6.53259 43.7576 6.53259H90.6198C93.3534 6.53259 93.4783 6.65706 93.4823 9.39171C93.4823 21.5206 93.4823 33.6496 93.4823 45.7785C93.4703 46.681 93.5794 47.581 93.8064 48.4548C94.5874 51.3139 93.8337 53.8074 91.5804 55.3089C90.5327 56.0073 89.2851 56.3469 88.0264 56.2761C86.7676 56.2054 85.5663 55.7284 84.604 54.917C83.6417 54.1057 82.9708 53.0043 82.6928 51.7794C82.4148 50.5545 82.5449 49.2728 83.0632 48.128C84.1723 45.6735 86.5349 44.4481 89.4872 44.7982C89.7958 44.8332 90.1004 44.8994 90.4987 44.9655V9.56676H70.4261C70.4261 10.6482 70.4846 11.6673 70.4261 12.6787C70.2386 15.4251 68.2587 17.4401 65.4977 17.479C59.9654 17.5516 54.4317 17.5516 48.8968 17.479C46.0812 17.4167 44.1286 15.3589 43.8982 12.4492C43.824 11.5001 43.8982 10.5431 43.8982 9.49285L41.9456 9.36448C39.333 9.19333 37.5132 7.4195 37.4116 4.93381C37.3482 3.72751 37.7566 2.54368 38.5511 1.63111C39.3457 0.718535 40.4644 0.148292 41.6722 0.0402257C42.1919 0.000660544 42.7134 -0.00972915 43.2343 0.0091059H91.268C97.0477 0.0091059 100 2.97326 100 8.77321V89.9141C100 94.9711 97.7038 97.2311 92.5802 97.2311C63.6115 97.2311 34.6429 97.2311 5.67423 97.2311C1.56207 97.2506 0 95.6713 0 91.6101C0 79.6109 0 67.6168 0 55.6279C0 51.7768 1.5855 50.1819 5.4243 50.1819C6.98637 50.1819 8.54844 50.1819 10.1105 50.1819C11.161 50.1819 12.2193 50.2636 12.2545 51.5668C12.2974 53.0177 11.1415 53.0994 10.0441 53.0994C8.34928 53.0994 6.65834 53.0994 4.96739 53.0994C3.72945 53.0994 2.96403 53.6012 2.95622 54.9199C2.94841 56.9038 2.95622 58.9071 2.95622 61.2606ZM3.08119 79.5746H5.32667C22.9703 79.5746 40.6126 79.5746 58.2536 79.5746C58.9058 79.5746 59.7141 79.7574 60.1671 79.4462C61.0458 78.8394 62.3345 77.9797 62.3775 77.1667C62.5962 72.9149 62.479 68.6476 62.479 64.3298H3.08119V79.5746ZM67.5597 9.53564H46.8622C46.8622 10.4537 46.8622 11.2278 46.8622 12.0019C46.8349 13.6979 47.7213 14.5304 49.3693 14.5381C54.5762 14.5615 59.7831 14.5615 64.99 14.5381C66.7552 14.5381 67.6026 13.5929 67.5792 11.8463C67.5597 11.1422 67.5597 10.4342 67.5597 9.53564ZM91.2758 50.4037C91.2296 49.658 90.902 48.9573 90.3588 48.4422C89.8155 47.9271 89.0969 47.6356 88.3469 47.6262C87.9585 47.6332 87.5755 47.7188 87.2212 47.8778C86.867 48.0368 86.5489 48.2659 86.2863 48.5512C86.0237 48.8364 85.822 49.1718 85.6936 49.5371C85.5651 49.9024 85.5126 50.2898 85.5391 50.676C85.5834 51.4209 85.9223 52.1179 86.4815 52.6144C87.0407 53.111 87.7747 53.3665 88.5227 53.325C89.2723 53.2897 89.9786 52.965 90.4919 52.4196C91.0051 51.8742 91.2849 51.1511 91.2719 50.4037H91.2758ZM62.354 61.1517C62.4907 58.631 61.4402 58.1175 58.2809 58.9811V61.1517H62.354ZM31.0306 61.1244H35.0568V58.8138C32.9871 58.3509 31.6632 58.9694 31.0306 61.1244ZM41.723 61.1478V58.8371H38.1732C38.2083 59.689 38.2395 60.3737 38.2747 61.1478H41.723ZM44.9369 61.1089H48.3462V58.806H44.9369V61.1089ZM51.6734 58.7399V61.0739H54.9928V58.7399H51.6734Z" fill="#546DE5"/>
<path d="M55.6193 38.5129C51.3939 38.4428 46.3601 36.5095 42.08 32.6546C41.299 31.9388 40.4321 31.1297 41.4474 30.0483C42.4628 28.9669 43.2906 29.8032 44.099 30.5112C51.9406 37.3459 62.4846 37.3459 70.3379 30.4606C71.1737 29.7332 72.0211 28.9863 72.9857 30.0989C73.9502 31.2114 73.0286 31.9777 72.2476 32.6974C68.2721 36.4006 62.7697 38.5129 55.6193 38.5129Z" fill="#546DE5"/>
<path d="M57.2502 32.9925C52.9896 32.8797 49.2172 31.5454 46.0345 28.7135C45.2534 28.0017 44.3748 27.2081 45.4018 26.1189C46.3078 25.162 47.1045 25.7805 47.9168 26.4612C53.6496 31.2576 60.6594 31.2809 66.3844 26.5235C67.2318 25.8194 68.0948 25.0764 69.0399 26.185C69.9849 27.2937 69.0399 28.0756 68.2589 28.7796C65.1269 31.561 61.4014 32.8486 57.2502 32.9925Z" fill="#546DE5"/>
<path d="M57.2566 27.3484C54.398 27.3756 51.8401 26.5004 49.8172 24.4932C49.3486 24.0225 49.4541 22.98 49.2939 22.202C50.075 22.2487 51.102 21.9958 51.6371 22.3887C55.6203 25.1778 58.6664 25.1661 62.7278 22.3576C63.2823 21.9686 64.2898 22.2525 65.0943 22.2253C64.9108 23.0033 64.9889 24.0575 64.5007 24.536C62.5403 26.4809 60.0449 27.3484 57.2566 27.3484Z" fill="#546DE5"/>
<path d="M9.92906 87.3512C8.89809 88.0786 8.36699 88.7594 7.79292 88.771C7.31259 88.771 6.37144 87.9464 6.42611 87.604C6.52765 87.0167 7.15247 86.1998 7.68358 86.0908C8.21468 85.9819 8.83561 86.7016 9.92906 87.3512Z" fill="#546DE5"/>
<path d="M37.6949 87.4245C36.6444 88.1091 36.0742 88.7665 35.5119 88.7587C35.0354 88.7587 34.1255 87.8913 34.1919 87.5684C34.313 86.9849 34.973 86.1913 35.4963 86.1058C36.0195 86.0202 36.6288 86.7476 37.6949 87.4245Z" fill="#546DE5"/>
</svg>
