<svg width="35" height="35" viewBox="0 0 35 35" fill="none" xmlns="http://www.w3.org/2000/svg">
<circle cx="17.5" cy="17.5" r="17.5" fill="white" fill-opacity="0.2"/>
<g clip-path="url(#clip0_261_857)">
<path d="M15.83 17.5503C15.2213 16.9398 14.687 16.402 14.1505 15.8666C12.5802 14.2991 11.0088 12.7324 9.43627 11.1665C9.07556 10.8086 8.91967 10.3949 9.04142 9.90272C9.23771 9.10666 10.2038 8.74306 10.8854 9.20168C11.001 9.28416 11.1084 9.37753 11.2062 9.4805C13.5545 11.826 15.9017 14.1724 18.248 16.5198C18.8813 17.1537 18.8875 17.8337 18.2611 18.4613C15.9019 20.822 13.5421 23.1829 11.1818 25.5439C10.8205 25.9092 10.4046 26.0879 9.89825 25.957C9.0602 25.7408 8.72452 24.7296 9.25591 24.0451C9.33995 23.9424 9.4306 23.8452 9.5273 23.7543C11.5273 21.7575 13.5279 19.7617 15.5291 17.7671C15.6238 17.6873 15.7244 17.6149 15.83 17.5503Z" fill="white"/>
<path d="M23.1181 17.4368C23.0128 17.3702 22.9013 17.323 22.8228 17.2456C20.7924 15.2252 18.7639 13.2027 16.7374 11.1782C16.3909 10.8328 16.2708 10.4231 16.4017 9.95536C16.5303 9.49673 16.8455 9.20823 17.3063 9.10581C17.7586 9.00509 18.1404 9.15247 18.4675 9.48023C19.8125 10.8311 21.1605 12.1793 22.5116 13.5248C23.5174 14.5305 24.5226 15.5357 25.527 16.5406C26.146 17.1614 26.1528 17.8465 25.5406 18.4599C23.1776 20.8308 20.8121 23.1989 18.4442 25.5641C17.8952 26.1115 17.1419 26.1428 16.6452 25.6483C16.1485 25.1538 16.1679 24.4056 16.6987 23.8713C17.6414 22.9227 18.591 21.981 19.5377 21.0359C20.6521 19.924 21.7664 18.8118 22.8808 17.6991C22.9388 17.6405 22.9906 17.5762 23.1181 17.4368Z" fill="white"/>
</g>
<defs>
<clipPath id="clip0_261_857">
<rect width="17" height="17" fill="white" transform="translate(9 9)"/>
</clipPath>
</defs>
</svg>
